<svg width="612" height="160" viewBox="0 0 612 160" fill="none" xmlns="http://www.w3.org/2000/svg">
<path d="M141.2 157.2C136.6 159.2 130.6 157.6 127.8 152.2L114 121.4C101 118.2 88 118 75.4 120.8C65.2 122.8 55.2 126.6 45.4 132.6C35.4 138.8 25 147 17.4 154.4C13.6 158.2 8.6 159.4 4.4 156.8C2.38419e-07 154 0.6 148.4 2.6 143.8L65.8 6.59999C67.6 2.99999 71 0.799997 75 0.799997C78.8 0.799997 82.6 3.19999 84 6.59999L146.2 143.8C148.4 149 146.2 154.8 141.2 157.2ZM74.8 34.8L36.4 116.6C47 110.6 61 105.2 72.2 103C83 100.6 94 100.2 105 101.2L74.8 34.8ZM172.961 158C167.561 158 162.961 153.6 162.961 148V10.8C162.961 5.4 167.561 0.799997 172.961 0.799997C178.561 0.799997 182.961 5.4 182.961 10.8V148C182.961 153.6 178.561 158 172.961 158ZM297.247 158H210.047C204.647 158 200.047 153.6 200.047 148V10.8C200.047 5.19999 204.647 0.799997 210.047 0.799997C215.647 0.799997 220.047 5.19999 220.047 10.8V138H297.247C302.847 138 307.247 142.4 307.247 148C307.247 153.6 302.847 158 297.247 158ZM462.489 157.2C457.889 159.2 451.889 157.6 449.089 152.2L435.289 121.4C422.289 118.2 409.289 118 396.689 120.8C386.489 122.8 376.489 126.6 366.689 132.6C356.689 138.8 346.289 147 338.689 154.4C334.889 158.2 329.889 159.4 325.689 156.8C321.289 154 321.889 148.4 323.889 143.8L387.089 6.59999C388.889 2.99999 392.289 0.799997 396.289 0.799997C400.089 0.799997 403.889 3.19999 405.289 6.59999L467.489 143.8C469.689 149 467.489 154.8 462.489 157.2ZM396.089 34.8L357.689 116.6C368.289 110.6 382.289 105.2 393.489 103C404.289 100.6 415.289 100.2 426.289 101.2L396.089 34.8ZM609.25 118C607.25 142.8 588.65 158 562.05 158H493.25C490.65 158 488.05 157 486.25 155.2C484.45 153.2 483.25 150.8 483.25 148V10.8C483.25 5.19999 487.85 0.799997 493.25 0.799997H552.45C578.65 0.799997 596.85 12.6 600.25 36.8C602.85 55.6 594.85 67.2 585.45 74C598.65 78.6 611.05 95.4 609.25 118ZM589.25 116.2C591.25 96.6 580.45 87 560.85 87H560.25L544.65 87.2H544.45C539.05 87.2 534.65 82.6 534.45 77.2C534.45 71.6 539.05 67.2 544.45 67.2L559.65 67C574.45 65.4 582.25 55.4 580.45 39.2C578.85 26.2 569.45 20.8 552.45 20.8H503.25V137.8H562.05C578.25 137.8 587.85 131 589.25 116.2Z" fill="#0A1043"/>
</svg>
