<svg xmlns="http://www.w3.org/2000/svg" width="588" height="159" viewBox="0 0 588 159" fill="none"><path d="M158.5 0H0V156.8H158.5V0Z" fill="#263774"></path><path d="M79.8 8.8C79.8 8.8 78.5 9.4 78.3 10C78 10.9 79.1 11.8 79.1 12.7C79 13.9 77.8 14.9 77.8 16.1C77.8 17 78.8 17.8 78.6 18.7C78.5 19.3 78 20 77.4 20C76.8 20 76.4 19.3 76.3 18.7C76.2 17.7 77.6 16.9 77.6 15.9C77.6 15.2 76.7 14.7 76.8 14C76.8982 13.5863 77.1053 13.2065 77.4 12.9C77.4 12.9 75.8 13.7 75.6 14.5C75.4 15.1 76.1 15.6 76 16.2C75.8 17.6 74.1 18.6 74 20C73.996 20.6971 74.1304 21.3881 74.3953 22.0329C74.6603 22.6777 75.0505 23.2636 75.5435 23.7565C76.0364 24.2495 76.6223 24.6397 77.2671 24.9047C77.9119 25.1696 78.6029 25.304 79.3 25.3C80.7148 25.3202 82.0804 24.7811 83.1 23.8C84.1283 22.7629 84.7036 21.3605 84.7 19.9C84.7 18.7 83.5 17.7 83.5 16.4C83.5 15.7 84.2 15.1 84.1 14.5C84 13.6 82.5 12.4 82.5 12.4C82.6649 12.985 82.7325 13.5931 82.7 14.2C82.5 15 81.6 15.5 81.6 16.3C81.6 17.1 82.5 17.8 82.4 18.6C82.3 19.1 82 19.9 81.4 19.9C80.8 19.9 80.4 19.2 80.3 18.6C80.1 17.4 81.4 16.4 81.3 15.2C81.2 13.4 79.5 11.9 79.5 10.1C79.5038 9.64996 79.6062 9.20621 79.8 8.8ZM79.1 27.1C77.4386 27.1 75.8146 27.5927 74.4332 28.5157C73.0518 29.4387 71.9752 30.7506 71.3394 32.2855C70.7036 33.8204 70.5373 35.5093 70.8614 37.1388C71.1855 38.7682 71.9855 40.2649 73.1603 41.4397C74.3351 42.6145 75.8318 43.4145 77.4612 43.7386C79.0907 44.0627 80.7796 43.8964 82.3145 43.2606C83.8494 42.6248 85.1613 41.5482 86.0843 40.1668C87.0073 38.7854 87.5 37.1614 87.5 35.5V35.4C87.4483 33.1977 86.5436 31.1015 84.9766 29.5532C83.4097 28.0048 81.3028 27.1253 79.1 27.1ZM67.3 36.6V37.7C67.3 40.8296 68.5432 43.8309 70.7561 46.0439C72.9691 48.2568 75.9704 49.5 79.1 49.5C82.2295 49.5 85.2309 48.2568 87.4439 46.0439C89.6568 43.8309 90.9 40.8296 90.9 37.7V36.6C90.1503 39.1485 88.5956 41.3858 86.4686 42.9772C84.3416 44.5687 81.7565 45.4287 79.1 45.4287C76.4435 45.4287 73.8584 44.5687 71.7314 42.9772C69.6044 41.3858 68.0497 39.1485 67.3 36.6ZM56.7 51.5V100.9H67V51.5H56.7ZM68.8 51.5L79 58.2L89.2 51.5H68.8ZM91 51.5V100.9H101.3V51.5H91ZM68.8 59.9V64.2H89.3V59.9H68.8ZM77.4 65.7C76.9605 65.7176 76.5244 65.7847 76.1 65.9C71.7 66.8 68.5 71.2 68.5 76C68.4967 78.2664 69.2247 80.4735 70.5759 82.2931C71.9272 84.1127 73.8294 85.4478 76 86.1C75.1814 85.6087 74.4973 84.9224 74.0087 84.1022C73.5201 83.2821 73.2423 82.3537 73.2 81.4C73.1915 80.2557 73.5313 79.1358 74.1743 78.1892C74.8173 77.2425 75.7331 76.5139 76.8 76.1C77.5054 75.8283 78.2464 75.6599 79 75.6C80.2989 75.6241 81.5544 75.1325 82.4915 74.2329C83.4287 73.3332 83.9711 72.0988 84 70.8V70.6C83.7 67.2 80.5 65.5 77.4 65.7ZM82.1 65.8C82.9185 66.2913 83.6027 66.9776 84.0913 67.7978C84.5799 68.6179 84.8577 69.5463 84.9 70.5C84.9 72.0117 84.2995 73.4616 83.2305 74.5305C82.1615 75.5995 80.7117 76.2 79.2 76.2H79.1C77.8012 76.2026 76.5564 76.7197 75.6381 77.6381C74.7197 78.5564 74.2026 79.8012 74.2 81.1C74.5 84.6 77.7 86.2 80.8 86.1C81.2 86.1 81.7 86 82.1 86C86.5 85.1 89.7 80.7 89.7 75.9C89.6339 73.637 88.8675 71.4503 87.5063 69.6413C86.145 67.8323 84.2561 66.4902 82.1 65.8ZM79.1 68.6C79.4758 68.6 79.8431 68.7114 80.1556 68.9202C80.468 69.129 80.7116 69.4257 80.8554 69.7729C80.9992 70.1201 81.0368 70.5021 80.9635 70.8707C80.8902 71.2392 80.7092 71.5778 80.4435 71.8435C80.1778 72.1092 79.8392 72.2902 79.4707 72.3635C79.1021 72.4368 78.7201 72.3992 78.3729 72.2554C78.0257 72.1116 77.729 71.868 77.5202 71.5556C77.3114 71.2431 77.2 70.8758 77.2 70.5C77.1916 70.2482 77.2351 69.9974 77.3276 69.7631C77.4201 69.5288 77.5598 69.316 77.7379 69.1379C77.916 68.9598 78.1288 68.8201 78.3631 68.7276C78.5974 68.6351 78.8482 68.5916 79.1 68.6ZM79 79.4C79.3758 79.4 79.7431 79.5114 80.0556 79.7202C80.368 79.929 80.6116 80.2257 80.7554 80.5729C80.8992 80.9201 80.9368 81.3021 80.8635 81.6707C80.7902 82.0392 80.6092 82.3778 80.3435 82.6435C80.0778 82.9092 79.7392 83.0902 79.3707 83.1635C79.0021 83.2368 78.6201 83.1992 78.2729 83.0554C77.9257 82.9116 77.629 82.668 77.4202 82.3556C77.2114 82.0431 77.1 81.6758 77.1 81.3C77.1 80.7961 77.3002 80.3128 77.6565 79.9565C78.0128 79.6002 78.4961 79.4 79 79.4ZM68.8 88.2V92.4H89.3V88.2H68.8ZM68.8 94.2L79 100.9L89.2 94.2H68.8Z" fill="#F6C615"></path><path d="M18.51 123.68C18.4599 123.681 18.4101 123.672 18.3637 123.653C18.3173 123.634 18.2752 123.606 18.24 123.57C18.2054 123.538 18.1777 123.5 18.1588 123.457C18.1399 123.413 18.1301 123.367 18.13 123.32V113.55C18.1291 113.5 18.1384 113.45 18.1573 113.404C18.1762 113.357 18.2043 113.315 18.24 113.28C18.2757 113.246 18.3181 113.219 18.3646 113.202C18.411 113.185 18.4605 113.177 18.51 113.18H19.69C19.7481 113.174 19.8069 113.18 19.8622 113.199C19.9175 113.219 19.9679 113.249 20.01 113.29C20.0619 113.34 20.1058 113.397 20.14 113.46L23.04 118.86L25.96 113.46C25.9986 113.397 26.0457 113.34 26.1 113.29C26.1401 113.25 26.1888 113.219 26.2425 113.2C26.2961 113.181 26.3534 113.174 26.41 113.18H27.58C27.6295 113.177 27.679 113.185 27.7254 113.202C27.7719 113.219 27.8143 113.246 27.85 113.28C27.8857 113.315 27.9138 113.357 27.9327 113.404C27.9516 113.45 27.9609 113.5 27.96 113.55V123.32C27.9599 123.367 27.9501 123.413 27.9312 123.457C27.9123 123.5 27.8846 123.538 27.85 123.57C27.8148 123.606 27.7727 123.634 27.7263 123.653C27.6799 123.672 27.6301 123.681 27.58 123.68H26.32C26.2245 123.68 26.133 123.642 26.0654 123.575C25.9979 123.507 25.96 123.415 25.96 123.32V116.82L23.86 120.82C23.8111 120.908 23.7467 120.985 23.67 121.05C23.577 121.117 23.4647 121.152 23.35 121.15H22.74C22.622 121.154 22.5061 121.119 22.41 121.05C22.3391 120.983 22.2784 120.905 22.23 120.82L20.13 116.82V123.32C20.1252 123.414 20.0857 123.503 20.0192 123.569C19.9527 123.636 19.8639 123.675 19.77 123.68H18.51Z" fill="white"></path><path d="M34.33 123.83C33.5429 123.85 32.7609 123.697 32.04 123.38C31.4095 123.096 30.8846 122.62 30.54 122.02C30.1546 121.315 29.9518 120.524 29.95 119.72C29.95 119.29 29.95 118.86 29.95 118.44C29.95 118.02 29.95 117.59 29.95 117.15C29.9499 116.351 30.1566 115.565 30.55 114.87C30.9102 114.271 31.4388 113.791 32.07 113.49C32.7866 113.187 33.5568 113.03 34.335 113.03C35.1132 113.03 35.8834 113.187 36.6 113.49C37.2359 113.788 37.7686 114.268 38.13 114.87C38.5234 115.565 38.7301 116.351 38.73 117.15C38.73 117.59 38.73 118.02 38.73 118.44C38.73 118.86 38.73 119.29 38.73 119.72C38.7282 120.524 38.5254 121.315 38.14 122.02C37.7939 122.622 37.265 123.099 36.63 123.38C35.9056 123.697 35.1204 123.851 34.33 123.83ZM34.33 122.1C34.6202 122.113 34.9099 122.068 35.1827 121.968C35.4556 121.869 35.7061 121.716 35.92 121.52C36.1482 121.265 36.324 120.968 36.4372 120.646C36.5505 120.323 36.599 119.981 36.58 119.64C36.58 119.2 36.58 118.79 36.58 118.42C36.58 118.05 36.58 117.64 36.58 117.21C36.5787 116.719 36.4695 116.234 36.26 115.79C36.086 115.45 35.8097 115.174 35.47 115C35.1157 114.826 34.7246 114.74 34.33 114.75C33.942 114.742 33.5576 114.827 33.21 115C32.8683 115.171 32.5911 115.448 32.42 115.79C32.2057 116.232 32.0962 116.718 32.1 117.21C32.1 117.64 32.1 118.04 32.1 118.42C32.1 118.8 32.1 119.2 32.1 119.64C32.081 119.981 32.1295 120.323 32.2428 120.646C32.356 120.968 32.5318 121.265 32.76 121.52C32.9706 121.715 33.2177 121.867 33.4871 121.967C33.7566 122.066 34.043 122.112 34.33 122.1Z" fill="white"></path><path d="M41.08 123.68C40.9871 123.679 40.8978 123.644 40.83 123.58C40.7946 123.547 40.7666 123.506 40.7476 123.462C40.7287 123.417 40.7193 123.369 40.72 123.32V113.55C40.7191 113.5 40.7284 113.45 40.7473 113.404C40.7662 113.357 40.7943 113.315 40.83 113.28C40.8623 113.247 40.9013 113.221 40.9443 113.203C40.9874 113.186 41.0336 113.178 41.08 113.18H42.45C42.4979 113.177 42.5459 113.185 42.5907 113.202C42.6355 113.219 42.6762 113.246 42.71 113.28C42.7749 113.355 42.8104 113.451 42.81 113.55V117.42H47.23V113.55C47.2291 113.5 47.2384 113.45 47.2573 113.404C47.2762 113.357 47.3043 113.315 47.34 113.28C47.3723 113.247 47.4113 113.221 47.4543 113.203C47.4974 113.186 47.5436 113.178 47.59 113.18H48.94C48.9895 113.177 49.039 113.185 49.0854 113.202C49.1319 113.219 49.1743 113.246 49.21 113.28C49.2457 113.315 49.2738 113.357 49.2927 113.404C49.3116 113.45 49.3209 113.5 49.32 113.55V123.32C49.3199 123.367 49.3101 123.413 49.2912 123.457C49.2723 123.5 49.2446 123.538 49.21 123.57C49.1748 123.606 49.1327 123.634 49.0863 123.653C49.0399 123.672 48.9901 123.681 48.94 123.68H47.59C47.4961 123.675 47.4073 123.636 47.3408 123.569C47.2743 123.503 47.2348 123.414 47.23 123.32V119.32H42.81V123.32C42.8092 123.413 42.7735 123.502 42.71 123.57C42.6767 123.605 42.6363 123.633 42.5916 123.652C42.5468 123.671 42.4986 123.681 42.45 123.68H41.08Z" fill="white"></path><path d="M52 123.68C51.9061 123.675 51.8173 123.636 51.7508 123.569C51.6843 123.503 51.6448 123.414 51.64 123.32V113.55C51.6391 113.5 51.6484 113.45 51.6673 113.404C51.6862 113.357 51.7143 113.315 51.75 113.28C51.7823 113.247 51.8213 113.221 51.8643 113.203C51.9074 113.186 51.9536 113.178 52 113.18H58.12C58.1695 113.177 58.219 113.185 58.2654 113.202C58.3119 113.219 58.3543 113.246 58.39 113.28C58.4257 113.315 58.4538 113.357 58.4727 113.404C58.4916 113.45 58.5009 113.5 58.5 113.55V114.55C58.5001 114.599 58.4901 114.648 58.4708 114.693C58.4515 114.738 58.4232 114.778 58.3876 114.812C58.352 114.846 58.3099 114.872 58.2639 114.889C58.2179 114.905 58.1689 114.913 58.12 114.91H53.74V123.27C53.74 123.365 53.7021 123.457 53.6346 123.525C53.567 123.592 53.4755 123.63 53.38 123.63L52 123.68Z" fill="white"></path><path d="M63.67 123.83C62.8829 123.85 62.1009 123.697 61.38 123.38C60.7495 123.096 60.2246 122.62 59.88 122.02C59.4946 121.315 59.2918 120.524 59.29 119.72C59.29 119.29 59.29 118.86 59.29 118.44C59.29 118.02 59.29 117.59 59.29 117.15C59.2899 116.351 59.4966 115.565 59.89 114.87C60.2502 114.271 60.7788 113.791 61.41 113.49C62.1266 113.187 62.8968 113.03 63.675 113.03C64.4532 113.03 65.2234 113.187 65.94 113.49C66.5759 113.788 67.1086 114.268 67.47 114.87C67.8588 115.567 68.0652 116.352 68.07 117.15C68.07 117.59 68.07 118.02 68.07 118.44C68.07 118.86 68.07 119.29 68.07 119.72C68.0682 120.524 67.8654 121.315 67.48 122.02C67.1417 122.617 66.6239 123.093 66 123.38C65.2664 123.701 64.4705 123.855 63.67 123.83ZM63.67 122.1C63.9601 122.113 64.2499 122.068 64.5227 121.968C64.7956 121.869 65.0461 121.716 65.26 121.52C65.4882 121.265 65.664 120.968 65.7772 120.646C65.8905 120.323 65.939 119.981 65.92 119.64C65.92 119.2 65.92 118.79 65.92 118.42C65.92 118.05 65.92 117.64 65.92 117.21C65.9187 116.719 65.8095 116.234 65.6 115.79C65.426 115.45 65.1497 115.174 64.81 115C64.4557 114.826 64.0646 114.74 63.67 114.75C63.2819 114.742 62.8976 114.827 62.55 115C62.2083 115.171 61.9311 115.448 61.76 115.79C61.5457 116.232 61.4362 116.718 61.44 117.21C61.44 117.64 61.44 118.04 61.44 118.42C61.44 118.8 61.44 119.2 61.44 119.64C61.421 119.981 61.4695 120.323 61.5828 120.646C61.696 120.968 61.8718 121.265 62.1 121.52C62.3106 121.715 62.5577 121.867 62.8271 121.967C63.0966 122.066 63.383 122.112 63.67 122.1Z" fill="white"></path><path d="M76.87 123.68C76.7761 123.675 76.6873 123.636 76.6208 123.569C76.5543 123.503 76.5148 123.414 76.51 123.32V115.05H73.26V116.94C73.2678 117.97 73.2043 118.999 73.07 120.02C72.9816 120.736 72.7755 121.432 72.46 122.08C72.2047 122.575 71.8078 122.982 71.32 123.25C70.7587 123.521 70.1433 123.661 69.52 123.66C69.4717 123.666 69.4226 123.661 69.3772 123.643C69.3318 123.626 69.2915 123.597 69.26 123.56C69.2236 123.527 69.1948 123.487 69.1758 123.442C69.1568 123.397 69.148 123.349 69.15 123.3V122.18C69.1473 122.134 69.154 122.087 69.1699 122.044C69.1858 122 69.2104 121.96 69.2422 121.927C69.2741 121.893 69.3125 121.866 69.3551 121.848C69.3977 121.829 69.4436 121.82 69.49 121.82C69.7873 121.773 70.0592 121.624 70.26 121.4C70.5118 121.111 70.6963 120.769 70.8 120.4C70.9698 119.891 71.0805 119.364 71.13 118.83C71.2032 118.106 71.2366 117.378 71.23 116.65V113.52C71.2299 113.471 71.2396 113.423 71.2585 113.379C71.2774 113.334 71.3051 113.294 71.34 113.26C71.3723 113.227 71.4113 113.201 71.4543 113.183C71.4974 113.166 71.5436 113.158 71.59 113.16H78.22C78.2695 113.157 78.319 113.165 78.3654 113.182C78.4119 113.199 78.4543 113.226 78.49 113.26C78.5257 113.295 78.5538 113.337 78.5727 113.384C78.5916 113.43 78.6009 113.48 78.6 113.53V123.3C78.5999 123.347 78.5901 123.393 78.5712 123.437C78.5523 123.48 78.5246 123.518 78.49 123.55C78.4548 123.586 78.4127 123.614 78.3663 123.633C78.3199 123.652 78.2701 123.661 78.22 123.66L76.87 123.68Z" fill="white"></path><path d="M87.42 121.05L83.42 113.66C83.4088 113.611 83.4088 113.559 83.42 113.51C83.4195 113.465 83.4282 113.421 83.4454 113.38C83.4626 113.338 83.4879 113.301 83.52 113.27C83.5832 113.213 83.6649 113.181 83.75 113.18H85.22C85.3007 113.179 85.3803 113.199 85.45 113.24C85.5209 113.299 85.5759 113.374 85.61 113.46L88.61 118.98L87.42 121.05ZM85.09 123.68C84.9924 123.678 84.8993 123.639 84.83 123.57C84.7665 123.502 84.7308 123.413 84.73 123.32V122.21C84.7296 122.111 84.7651 122.015 84.83 121.94C84.8993 121.871 84.9924 121.832 85.09 121.83H85.65C85.9129 121.839 86.173 121.773 86.4 121.64C86.6482 121.478 86.8539 121.258 87 121C87.2124 120.668 87.3932 120.316 87.54 119.95L90.41 113.42C90.4367 113.331 90.4932 113.253 90.57 113.2C90.6434 113.159 90.7261 113.139 90.81 113.14H92.21C92.2493 113.14 92.2881 113.148 92.3242 113.163C92.3603 113.179 92.3929 113.202 92.42 113.23C92.4518 113.255 92.4774 113.287 92.4948 113.323C92.5121 113.36 92.5208 113.4 92.52 113.44C92.5253 113.483 92.5253 113.527 92.52 113.57C92.5239 113.61 92.5239 113.65 92.52 113.69L89.52 120.58C89.27 121.13 89.03 121.58 88.81 121.98C88.5975 122.362 88.3239 122.707 88 123C87.7397 123.249 87.4246 123.434 87.08 123.54C86.6656 123.668 86.2335 123.728 85.8 123.72L85.09 123.68Z" fill="white"></path><path d="M100.08 123.68C100.031 123.68 99.9834 123.67 99.9388 123.652C99.8941 123.633 99.8537 123.605 99.82 123.57C99.7854 123.538 99.7577 123.5 99.7388 123.457C99.7199 123.413 99.7101 123.367 99.71 123.32V115.05H96.46V116.94C96.4728 117.97 96.4093 118.999 96.27 120.02C96.1844 120.735 95.9817 121.431 95.67 122.08C95.4082 122.573 95.0087 122.98 94.52 123.25C93.9619 123.52 93.35 123.66 92.73 123.66C92.6803 123.666 92.6297 123.661 92.5827 123.643C92.5357 123.626 92.4936 123.597 92.46 123.56C92.4251 123.526 92.3974 123.486 92.3784 123.441C92.3595 123.397 92.3499 123.349 92.35 123.3V122.18C92.3473 122.134 92.354 122.087 92.3699 122.044C92.3858 122 92.4104 121.96 92.4422 121.927C92.4741 121.893 92.5125 121.866 92.5551 121.848C92.5977 121.829 92.6436 121.82 92.69 121.82C92.9901 121.772 93.2651 121.624 93.47 121.4C93.7142 121.106 93.8977 120.766 94.01 120.4C94.171 119.889 94.2782 119.363 94.33 118.83C94.407 118.106 94.4438 117.378 94.44 116.65V113.52C94.438 113.472 94.4458 113.424 94.463 113.38C94.4802 113.335 94.5064 113.294 94.54 113.26C94.5723 113.227 94.6113 113.201 94.6543 113.183C94.6974 113.166 94.7436 113.158 94.79 113.16H101.42C101.469 113.157 101.519 113.165 101.565 113.182C101.612 113.199 101.654 113.226 101.69 113.26C101.726 113.295 101.754 113.337 101.773 113.384C101.792 113.43 101.801 113.48 101.8 113.53V123.3C101.8 123.347 101.79 123.393 101.771 123.437C101.752 123.48 101.725 123.518 101.69 123.55C101.655 123.586 101.613 123.614 101.566 123.633C101.52 123.652 101.47 123.661 101.42 123.66L100.08 123.68Z" fill="white"></path><path d="M108.19 123.83C107.376 123.852 106.568 123.684 105.83 123.34C105.205 123.036 104.689 122.547 104.35 121.94C103.991 121.268 103.796 120.521 103.78 119.76C103.78 119.35 103.78 118.91 103.78 118.44C103.78 117.97 103.78 117.52 103.78 117.09C103.797 116.331 103.996 115.586 104.36 114.92C104.701 114.312 105.217 113.821 105.84 113.51C106.576 113.171 107.38 113.007 108.19 113.03C108.811 113.021 109.428 113.112 110.02 113.3C110.523 113.457 110.991 113.708 111.4 114.04C111.769 114.339 112.069 114.715 112.28 115.14C112.491 115.566 112.604 116.034 112.61 116.51C112.618 116.55 112.614 116.592 112.6 116.631C112.586 116.67 112.562 116.704 112.53 116.73C112.5 116.759 112.464 116.783 112.424 116.798C112.385 116.814 112.342 116.821 112.3 116.82H110.87C110.774 116.822 110.679 116.794 110.6 116.74C110.521 116.665 110.468 116.567 110.45 116.46C110.409 116.192 110.315 115.935 110.175 115.703C110.034 115.472 109.849 115.27 109.63 115.11C109.186 114.857 108.681 114.732 108.17 114.75C107.584 114.722 107.01 114.923 106.57 115.31C106.119 115.821 105.885 116.489 105.92 117.17C105.92 117.99 105.92 118.83 105.92 119.69C105.885 120.368 106.118 121.033 106.57 121.54C107.01 121.927 107.584 122.128 108.17 122.1C108.685 122.118 109.195 121.99 109.64 121.73C109.858 121.573 110.042 121.373 110.182 121.143C110.321 120.912 110.412 120.656 110.45 120.39C110.463 120.281 110.517 120.181 110.6 120.11C110.679 120.056 110.774 120.028 110.87 120.03H112.3C112.342 120.029 112.385 120.036 112.424 120.052C112.464 120.067 112.5 120.091 112.53 120.12C112.562 120.148 112.586 120.184 112.6 120.225C112.614 120.265 112.617 120.308 112.61 120.35C112.604 120.822 112.491 121.287 112.28 121.71C112.069 122.135 111.769 122.51 111.4 122.81C110.992 123.145 110.523 123.4 110.02 123.56C109.428 123.748 108.811 123.839 108.19 123.83Z" fill="white"></path><path d="M114.76 123.68C114.711 123.68 114.663 123.67 114.619 123.652C114.574 123.633 114.534 123.605 114.5 123.57C114.436 123.502 114.401 123.413 114.4 123.32V113.54C114.401 113.444 114.437 113.352 114.5 113.28C114.534 113.246 114.575 113.22 114.62 113.203C114.664 113.186 114.712 113.178 114.76 113.18H116.12C116.169 113.177 116.219 113.185 116.265 113.202C116.312 113.219 116.354 113.246 116.39 113.28C116.451 113.353 116.483 113.445 116.48 113.54V117H118.15C119.14 116.938 120.119 117.232 120.91 117.83C121.252 118.14 121.519 118.523 121.692 118.951C121.865 119.378 121.94 119.84 121.91 120.3C121.921 120.902 121.78 121.497 121.5 122.03C121.221 122.556 120.788 122.985 120.26 123.26C119.615 123.58 118.9 123.735 118.18 123.71L114.76 123.68ZM116.48 122.01H118.08C118.308 122.022 118.536 121.985 118.749 121.9C118.961 121.815 119.153 121.686 119.31 121.52C119.605 121.168 119.758 120.719 119.74 120.26C119.758 120.038 119.729 119.814 119.655 119.604C119.581 119.394 119.463 119.202 119.31 119.04C118.968 118.752 118.526 118.608 118.08 118.64H116.48V122.01ZM123.54 123.68C123.491 123.68 123.443 123.67 123.399 123.652C123.354 123.633 123.314 123.605 123.28 123.57C123.245 123.538 123.218 123.5 123.199 123.457C123.18 123.413 123.17 123.367 123.17 123.32V113.54C123.17 113.491 123.18 113.443 123.198 113.399C123.217 113.354 123.245 113.314 123.28 113.28C123.314 113.246 123.355 113.22 123.4 113.203C123.444 113.186 123.492 113.178 123.54 113.18H124.94C124.989 113.177 125.039 113.185 125.085 113.202C125.132 113.219 125.174 113.246 125.21 113.28C125.273 113.352 125.309 113.444 125.31 113.54V123.32C125.309 123.413 125.274 123.502 125.21 123.57C125.175 123.606 125.133 123.634 125.086 123.653C125.04 123.672 124.99 123.681 124.94 123.68H123.54Z" fill="white"></path><path d="M128 123.68C127.904 123.679 127.812 123.643 127.74 123.58C127.706 123.546 127.679 123.506 127.662 123.461C127.645 123.416 127.637 123.368 127.64 123.32V113.55C127.637 113.501 127.645 113.451 127.662 113.405C127.679 113.358 127.706 113.316 127.74 113.28C127.774 113.246 127.815 113.22 127.86 113.203C127.904 113.186 127.952 113.178 128 113.18H129.36C129.409 113.177 129.459 113.185 129.505 113.202C129.552 113.219 129.594 113.246 129.63 113.28C129.692 113.356 129.724 113.452 129.72 113.55V117.42H134.15V113.55C134.147 113.501 134.155 113.451 134.172 113.405C134.189 113.358 134.216 113.316 134.25 113.28C134.284 113.246 134.325 113.22 134.37 113.203C134.414 113.186 134.462 113.178 134.51 113.18H135.86C135.91 113.175 135.96 113.182 136.007 113.199C136.054 113.216 136.097 113.243 136.132 113.278C136.167 113.313 136.194 113.356 136.211 113.403C136.228 113.45 136.235 113.5 136.23 113.55V123.32C136.232 123.366 136.224 123.413 136.207 123.456C136.189 123.499 136.163 123.538 136.13 123.57C136.095 123.606 136.053 123.634 136.006 123.653C135.96 123.672 135.91 123.681 135.86 123.68H134.51C134.461 123.68 134.413 123.67 134.369 123.652C134.324 123.633 134.284 123.605 134.25 123.57C134.217 123.538 134.191 123.499 134.173 123.456C134.156 123.413 134.148 123.366 134.15 123.32V119.32H129.72V123.32C129.723 123.368 129.716 123.416 129.699 123.461C129.681 123.506 129.655 123.547 129.621 123.581C129.587 123.615 129.546 123.641 129.501 123.659C129.456 123.676 129.408 123.683 129.36 123.68H128Z" fill="white"></path><path d="M19.83 141.83C19.2213 141.842 18.6144 141.761 18.03 141.59C17.5744 141.465 17.1467 141.255 16.77 140.97C16.4583 140.726 16.1969 140.424 16 140.08C15.8282 139.771 15.7194 139.431 15.68 139.08C15.6734 139.04 15.6774 138.998 15.6914 138.96C15.7054 138.921 15.729 138.887 15.76 138.86C15.8231 138.804 15.9058 138.775 15.99 138.78H17.34C17.4304 138.777 17.5199 138.798 17.6 138.84C17.68 138.903 17.7421 138.986 17.78 139.08C17.9067 139.41 18.1434 139.685 18.45 139.86C18.8614 140.079 19.3244 140.183 19.79 140.16C20.1678 140.167 20.5438 140.106 20.9 139.98C21.1933 139.874 21.4548 139.695 21.66 139.46C21.8503 139.237 21.9534 138.953 21.95 138.66C21.9615 138.442 21.9181 138.224 21.8238 138.026C21.7295 137.829 21.5872 137.658 21.41 137.53C20.9665 137.247 20.4453 137.111 19.92 137.14H18.84C18.7914 137.141 18.7432 137.131 18.6984 137.112C18.6537 137.093 18.6133 137.065 18.58 137.03C18.5181 136.957 18.4828 136.866 18.48 136.77V135.9C18.4796 135.801 18.5151 135.705 18.58 135.63C18.6133 135.595 18.6537 135.567 18.6984 135.548C18.7432 135.529 18.7914 135.519 18.84 135.52H19.84C20.2868 135.539 20.7291 135.424 21.11 135.19C21.2733 135.071 21.4031 134.912 21.4872 134.728C21.5712 134.544 21.6066 134.341 21.59 134.14C21.5999 133.88 21.5185 133.626 21.36 133.42C21.1925 133.211 20.9712 133.052 20.72 132.96C20.424 132.843 20.1081 132.786 19.79 132.79C19.3412 132.773 18.8949 132.866 18.49 133.06C18.3285 133.141 18.1876 133.258 18.0784 133.402C17.9692 133.546 17.8945 133.713 17.86 133.89C17.8321 133.973 17.7799 134.047 17.71 134.1C17.6409 134.151 17.5558 134.176 17.47 134.17H16.07C15.9846 134.171 15.9021 134.139 15.84 134.08C15.8097 134.053 15.7866 134.018 15.7727 133.98C15.7587 133.942 15.7544 133.9 15.76 133.86C15.7915 133.479 15.902 133.109 16.0845 132.773C16.267 132.438 16.5175 132.144 16.82 131.91C17.1917 131.629 17.6121 131.419 18.06 131.29C18.6329 131.132 19.2258 131.058 19.82 131.07C20.5486 131.044 21.2736 131.184 21.94 131.48C22.4618 131.713 22.9134 132.078 23.25 132.54C23.5519 132.959 23.713 133.463 23.71 133.98C23.7079 134.254 23.6709 134.526 23.6 134.79C23.5298 135.07 23.4077 135.335 23.24 135.57C23.0432 135.825 22.7986 136.039 22.52 136.2C22.8548 136.358 23.1541 136.583 23.4 136.86C23.6212 137.119 23.791 137.417 23.9 137.74C24.0014 138.064 24.052 138.401 24.05 138.74C24.0623 139.331 23.8834 139.909 23.54 140.39C23.1556 140.884 22.644 141.264 22.06 141.49C21.3448 141.743 20.5881 141.859 19.83 141.83Z" fill="white"></path><path d="M25.32 141.68C25.2369 141.677 25.158 141.643 25.1002 141.583C25.0423 141.523 25.01 141.443 25.01 141.36C25.0019 141.317 25.0019 141.273 25.01 141.23L28.62 131.55C28.6509 131.446 28.714 131.355 28.8 131.29C28.8975 131.208 29.0234 131.169 29.15 131.18H30.78C30.9066 131.169 31.0325 131.208 31.13 131.29C31.2096 131.361 31.2713 131.45 31.31 131.55L35 141.23C35.0041 141.273 35.0041 141.317 35 141.36C35.001 141.402 34.9935 141.445 34.9781 141.484C34.9626 141.524 34.9395 141.56 34.91 141.59C34.8829 141.618 34.8503 141.641 34.8142 141.657C34.7781 141.672 34.7393 141.68 34.7 141.68H33.36C33.3059 141.684 33.2515 141.677 33.2 141.66C33.1485 141.643 33.1009 141.616 33.06 141.58C33.0025 141.528 32.958 141.463 32.93 141.39L32.22 139.56H27.77L27.06 141.39C27.0325 141.46 26.9918 141.525 26.94 141.58C26.8523 141.65 26.7421 141.686 26.63 141.68H25.32ZM28.32 137.84H31.7L30 133.2L28.32 137.84Z" fill="white"></path><path d="M40.41 141.83C39.5961 141.851 38.7884 141.683 38.05 141.34C37.427 141.033 36.9112 140.545 36.57 139.94C36.2111 139.268 36.0158 138.521 36 137.76C36 137.35 36 136.91 36 136.44C36 135.97 36 135.52 36 135.09C36.0216 134.331 36.2202 133.588 36.58 132.92C36.9247 132.312 37.4437 131.821 38.07 131.51C38.8021 131.17 39.6033 131.006 40.41 131.03C41.0306 131.021 41.6485 131.112 42.24 131.3C42.7429 131.457 43.2113 131.708 43.62 132.04C43.9916 132.339 44.295 132.714 44.51 133.14C44.7211 133.566 44.8338 134.034 44.84 134.51C44.8456 134.55 44.8413 134.592 44.8273 134.63C44.8134 134.668 44.7903 134.703 44.76 134.73C44.6937 134.788 44.6083 134.82 44.52 134.82H43.1C43.0038 134.822 42.9094 134.794 42.83 134.74C42.7509 134.665 42.6982 134.567 42.68 134.46C42.6371 134.191 42.5417 133.934 42.3993 133.702C42.2569 133.471 42.0702 133.269 41.85 133.11C41.4099 132.857 40.9075 132.732 40.4 132.75C39.8113 132.723 39.2346 132.923 38.79 133.31C38.3423 133.823 38.1126 134.49 38.15 135.17C38.15 135.99 38.15 136.83 38.15 137.69C38.112 138.367 38.3419 139.031 38.79 139.54C39.2346 139.927 39.8113 140.127 40.4 140.1C40.9122 140.12 41.4191 139.991 41.86 139.73C42.0801 139.574 42.2661 139.374 42.4071 139.144C42.548 138.914 42.6408 138.657 42.68 138.39C42.6934 138.281 42.7469 138.181 42.83 138.11C42.9094 138.056 43.0038 138.028 43.1 138.03H44.52C44.6083 138.03 44.6937 138.062 44.76 138.12C44.7904 138.149 44.8135 138.186 44.8274 138.225C44.8413 138.265 44.8456 138.308 44.84 138.35C44.8337 138.822 44.7209 139.287 44.51 139.71C44.295 140.136 43.9916 140.511 43.62 140.81C43.2118 141.145 42.7435 141.4 42.24 141.56C41.6485 141.748 41.0306 141.839 40.41 141.83Z" fill="white"></path><path d="M47 141.68C46.9061 141.675 46.8173 141.636 46.7508 141.569C46.6843 141.503 46.6448 141.414 46.64 141.32V131.55C46.6391 131.5 46.6484 131.45 46.6673 131.404C46.6862 131.357 46.7143 131.315 46.75 131.28C46.7823 131.247 46.8213 131.221 46.8643 131.203C46.9074 131.186 46.9536 131.178 47 131.18H53.1C53.1495 131.177 53.199 131.185 53.2454 131.202C53.2919 131.219 53.3343 131.246 53.37 131.28C53.4057 131.315 53.4338 131.357 53.4527 131.404C53.4716 131.45 53.4809 131.5 53.48 131.55V132.55C53.4801 132.599 53.4701 132.648 53.4508 132.693C53.4315 132.738 53.4032 132.778 53.3676 132.812C53.332 132.846 53.2899 132.872 53.2439 132.889C53.1979 132.905 53.1489 132.913 53.1 132.91H48.71V141.27C48.7118 141.316 48.7039 141.363 48.6867 141.406C48.6694 141.449 48.6433 141.488 48.61 141.52C48.5767 141.555 48.5363 141.583 48.4916 141.602C48.4468 141.621 48.3986 141.631 48.35 141.63L47 141.68Z" fill="white"></path><path d="M55.13 141.68C55.081 141.68 55.0325 141.67 54.9875 141.651C54.9424 141.631 54.9018 141.603 54.8681 141.568C54.8344 141.532 54.8083 141.49 54.7914 141.444C54.7746 141.398 54.7673 141.349 54.77 141.3V131.55C54.7654 131.5 54.7718 131.45 54.7887 131.403C54.8057 131.356 54.8328 131.313 54.8681 131.278C54.9034 131.243 54.9461 131.216 54.9931 131.199C55.0401 131.182 55.0903 131.175 55.14 131.18H56.49C56.5395 131.177 56.589 131.185 56.6354 131.202C56.6819 131.219 56.7243 131.246 56.76 131.28C56.8221 131.356 56.8541 131.452 56.85 131.55V138.44L61.79 131.44C61.8355 131.379 61.8894 131.325 61.95 131.28C62.0273 131.221 62.1233 131.193 62.22 131.2H63.47C63.5164 131.198 63.5626 131.206 63.6057 131.223C63.6487 131.241 63.6877 131.267 63.72 131.3C63.7557 131.335 63.7838 131.377 63.8027 131.424C63.8216 131.47 63.8309 131.52 63.83 131.57V141.34C63.8252 141.434 63.7857 141.523 63.7192 141.589C63.6527 141.656 63.5639 141.695 63.47 141.7H62.12C62.0699 141.701 62.0201 141.692 61.9737 141.673C61.9273 141.654 61.8852 141.626 61.85 141.59C61.8154 141.558 61.7877 141.52 61.7688 141.477C61.7499 141.433 61.7401 141.387 61.74 141.34V134.59L56.82 141.46L56.67 141.61C56.591 141.674 56.4912 141.706 56.39 141.7L55.13 141.68Z" fill="white"></path><path d="M66.53 141.68C66.481 141.68 66.4325 141.67 66.3875 141.651C66.3424 141.631 66.3018 141.603 66.2681 141.568C66.2344 141.532 66.2083 141.49 66.1915 141.444C66.1746 141.398 66.1673 141.349 66.17 141.3V131.55C66.1654 131.5 66.1718 131.45 66.1887 131.403C66.2057 131.356 66.2328 131.313 66.2681 131.278C66.3035 131.243 66.3461 131.216 66.3931 131.199C66.4401 131.182 66.4903 131.175 66.54 131.18H67.89C67.9395 131.177 67.989 131.185 68.0354 131.202C68.0819 131.219 68.1243 131.246 68.16 131.28C68.2221 131.356 68.2541 131.452 68.25 131.55V138.44L73.19 131.44C73.2355 131.379 73.2894 131.325 73.35 131.28C73.4273 131.221 73.5233 131.193 73.62 131.2H74.87C74.9164 131.198 74.9626 131.206 75.0057 131.223C75.0487 131.241 75.0877 131.267 75.12 131.3C75.1557 131.335 75.1838 131.377 75.2027 131.424C75.2216 131.47 75.2309 131.52 75.23 131.57V141.34C75.2252 141.434 75.1857 141.523 75.1192 141.589C75.0527 141.656 74.9639 141.695 74.87 141.7H73.52C73.4699 141.701 73.4201 141.692 73.3737 141.673C73.3273 141.654 73.2852 141.626 73.25 141.59C73.2154 141.558 73.1877 141.52 73.1688 141.477C73.1499 141.433 73.1401 141.387 73.14 141.34V134.59L68.22 141.46C68.1755 141.515 68.1252 141.565 68.07 141.61C67.991 141.674 67.8913 141.706 67.79 141.7L66.53 141.68ZM70.71 130.58C70.2007 130.601 69.6937 130.502 69.23 130.29C68.9011 130.128 68.6291 129.87 68.45 129.55C68.288 129.242 68.2055 128.898 68.21 128.55C68.2067 128.474 68.2316 128.399 68.28 128.34C68.3079 128.313 68.3409 128.293 68.3769 128.279C68.413 128.265 68.4514 128.259 68.49 128.26H69.36C69.3986 128.259 69.437 128.265 69.4731 128.279C69.5091 128.293 69.5421 128.313 69.57 128.34C69.6212 128.398 69.6496 128.473 69.65 128.55C69.6464 128.688 69.6737 128.824 69.73 128.95C69.7917 129.09 69.9017 129.204 70.04 129.27C70.2457 129.368 70.4726 129.413 70.7 129.4C70.9309 129.416 71.1619 129.371 71.37 129.27C71.5063 129.201 71.6155 129.088 71.68 128.95C71.7314 128.823 71.7585 128.687 71.76 128.55C71.7604 128.473 71.7888 128.398 71.84 128.34C71.8679 128.313 71.9009 128.293 71.9369 128.279C71.973 128.265 72.0114 128.259 72.05 128.26H72.92C72.9586 128.259 72.997 128.265 73.0331 128.279C73.0691 128.293 73.1021 128.313 73.13 128.34C73.1784 128.399 73.2033 128.474 73.2 128.55C73.2045 128.898 73.122 129.242 72.96 129.55C72.781 129.87 72.509 130.128 72.18 130.29C71.7202 130.503 71.2161 130.602 70.71 130.58Z" fill="white"></path><path d="M77.93 141.68C77.8342 141.679 77.7419 141.643 77.67 141.58C77.6359 141.546 77.6094 141.506 77.5922 141.461C77.5749 141.416 77.5674 141.368 77.57 141.32V131.55C77.5672 131.501 77.5746 131.451 77.5918 131.405C77.609 131.358 77.6357 131.316 77.67 131.28C77.7042 131.246 77.7449 131.22 77.7896 131.203C77.8343 131.186 77.8821 131.178 77.93 131.18H79.29C79.3395 131.177 79.389 131.185 79.4354 131.202C79.4819 131.219 79.5243 131.246 79.56 131.28C79.6221 131.356 79.6541 131.452 79.65 131.55V135.42H84.08V131.55C84.0772 131.501 84.0846 131.451 84.1018 131.405C84.119 131.358 84.1457 131.316 84.18 131.28C84.2142 131.246 84.2549 131.22 84.2996 131.203C84.3444 131.186 84.3921 131.178 84.44 131.18H85.79C85.8397 131.175 85.8899 131.182 85.9369 131.199C85.9839 131.216 86.0266 131.243 86.0619 131.278C86.0972 131.313 86.1243 131.356 86.1413 131.403C86.1582 131.45 86.1646 131.5 86.16 131.55V141.32C86.1619 141.366 86.1539 141.413 86.1367 141.456C86.1194 141.499 86.0933 141.538 86.06 141.57C86.0248 141.606 85.9827 141.634 85.9363 141.653C85.8899 141.672 85.8401 141.681 85.79 141.68H84.44C84.3915 141.68 84.3435 141.67 84.2988 141.652C84.2541 141.633 84.2137 141.605 84.18 141.57C84.1467 141.538 84.1206 141.499 84.1033 141.456C84.0861 141.413 84.0782 141.366 84.08 141.32V137.32H79.65V141.32C79.6529 141.368 79.6456 141.416 79.6286 141.461C79.6115 141.506 79.5851 141.547 79.551 141.581C79.517 141.615 79.4762 141.641 79.4312 141.659C79.3862 141.676 79.338 141.683 79.29 141.68H77.93Z" fill="white"></path><path d="M92.3 141.68C92.2515 141.68 92.2034 141.67 92.1588 141.652C92.1141 141.633 92.0737 141.605 92.04 141.57C92.0067 141.538 91.9806 141.499 91.9633 141.456C91.9461 141.413 91.9382 141.366 91.94 141.32V131.55C91.9372 131.501 91.9446 131.451 91.9618 131.405C91.979 131.358 92.0056 131.316 92.04 131.28C92.0742 131.246 92.1149 131.22 92.1596 131.203C92.2043 131.186 92.2521 131.178 92.3 131.18H98.42C98.4697 131.175 98.5199 131.182 98.5669 131.199C98.6139 131.216 98.6565 131.243 98.6919 131.278C98.7272 131.313 98.7543 131.356 98.7713 131.403C98.7882 131.45 98.7946 131.5 98.79 131.55V132.55C98.792 132.598 98.7842 132.646 98.767 132.69C98.7498 132.735 98.7236 132.776 98.69 132.81C98.6543 132.844 98.6119 132.871 98.5654 132.888C98.519 132.905 98.4695 132.913 98.42 132.91H94V141.27C94 141.365 93.9621 141.457 93.8946 141.525C93.827 141.592 93.7355 141.63 93.64 141.63L92.3 141.68Z" fill="white"></path><path d="M99.44 141.68C99.3992 141.68 99.3588 141.672 99.321 141.657C99.2833 141.641 99.249 141.619 99.22 141.59C99.1872 141.562 99.1612 141.526 99.1439 141.486C99.1266 141.447 99.1184 141.403 99.12 141.36C99.1119 141.317 99.1119 141.273 99.12 141.23L102.74 131.55C102.768 131.447 102.827 131.356 102.91 131.29C103.008 131.208 103.133 131.169 103.26 131.18H104.9C104.961 131.174 105.023 131.181 105.081 131.2C105.14 131.219 105.194 131.249 105.24 131.29C105.32 131.361 105.381 131.45 105.42 131.55L109.04 141.23C109.045 141.273 109.045 141.317 109.04 141.36C109.041 141.402 109.034 141.445 109.018 141.484C109.003 141.524 108.979 141.56 108.95 141.59C108.923 141.618 108.89 141.641 108.854 141.657C108.818 141.672 108.779 141.68 108.74 141.68H107.44C107.328 141.688 107.217 141.652 107.13 141.58C107.072 141.528 107.028 141.463 107 141.39L106.3 139.56H101.84L101.14 141.39C101.109 141.461 101.064 141.525 101.01 141.58C100.922 141.65 100.812 141.686 100.7 141.68H99.44ZM102.44 137.84H105.84L104.13 133.2L102.44 137.84Z" fill="white"></path><path d="M114 141.83C113.391 141.842 112.784 141.761 112.2 141.59C111.768 141.468 111.361 141.268 111 141C110.686 140.758 110.424 140.456 110.23 140.11C110.054 139.803 109.945 139.462 109.91 139.11C109.901 139.07 109.904 139.027 109.918 138.988C109.932 138.95 109.957 138.915 109.99 138.89C110.021 138.862 110.057 138.84 110.097 138.826C110.136 138.813 110.178 138.807 110.22 138.81H111.57C111.66 138.807 111.75 138.828 111.83 138.87C111.91 138.933 111.972 139.016 112.01 139.11C112.137 139.44 112.373 139.715 112.68 139.89C113.091 140.109 113.554 140.213 114.02 140.19C114.398 140.197 114.774 140.136 115.13 140.01C115.423 139.904 115.685 139.725 115.89 139.49C116.08 139.267 116.183 138.983 116.18 138.69C116.191 138.472 116.148 138.254 116.054 138.056C115.959 137.859 115.817 137.688 115.64 137.56C115.196 137.277 114.675 137.141 114.15 137.17H113C112.951 137.172 112.903 137.163 112.858 137.144C112.813 137.125 112.772 137.096 112.74 137.06C112.674 136.99 112.638 136.896 112.64 136.8V135.93C112.637 135.881 112.645 135.831 112.662 135.785C112.679 135.738 112.706 135.696 112.74 135.66C112.772 135.624 112.813 135.595 112.858 135.576C112.903 135.557 112.951 135.548 113 135.55H114C114.444 135.571 114.883 135.456 115.26 135.22C115.518 135.011 115.687 134.714 115.736 134.386C115.784 134.058 115.707 133.724 115.52 133.45C115.35 133.243 115.13 133.085 114.88 132.99C114.584 132.873 114.268 132.816 113.95 132.82C113.501 132.803 113.055 132.896 112.65 133.09C112.488 133.171 112.348 133.288 112.238 133.432C112.129 133.576 112.054 133.743 112.02 133.92C111.992 134.003 111.94 134.077 111.87 134.13C111.801 134.181 111.716 134.206 111.63 134.2H110.23C110.188 134.201 110.145 134.194 110.106 134.178C110.066 134.163 110.03 134.139 110 134.11C109.968 134.084 109.944 134.05 109.93 134.011C109.916 133.972 109.912 133.93 109.92 133.89C109.946 133.508 110.054 133.136 110.237 132.799C110.42 132.463 110.673 132.17 110.98 131.94C111.35 131.657 111.771 131.446 112.22 131.32C112.793 131.161 113.386 131.087 113.98 131.1C114.709 131.074 115.434 131.214 116.1 131.51C116.62 131.746 117.071 132.111 117.41 132.57C117.708 132.991 117.868 133.494 117.87 134.01C117.868 134.284 117.831 134.556 117.76 134.82C117.691 135.102 117.565 135.368 117.39 135.6C117.199 135.857 116.958 136.071 116.68 136.23C117.013 136.391 117.312 136.615 117.56 136.89C117.778 137.149 117.945 137.448 118.05 137.77C118.16 138.092 118.214 138.43 118.21 138.77C118.224 139.362 118.041 139.943 117.69 140.42C117.312 140.916 116.803 141.297 116.22 141.52C115.506 141.762 114.753 141.867 114 141.83Z" fill="white"></path><path d="M119.52 141.68C119.438 141.678 119.36 141.646 119.3 141.59C119.271 141.56 119.247 141.524 119.232 141.484C119.216 141.445 119.209 141.402 119.21 141.36C119.202 141.317 119.202 141.273 119.21 141.23L122.82 131.55C122.851 131.449 122.91 131.359 122.99 131.29C123.092 131.21 123.22 131.17 123.35 131.18H125C125.127 131.169 125.253 131.208 125.35 131.29C125.43 131.361 125.491 131.45 125.53 131.55L129.14 141.23C129.144 141.273 129.144 141.317 129.14 141.36C129.141 141.402 129.134 141.445 129.118 141.484C129.103 141.524 129.08 141.56 129.05 141.59C129.023 141.618 128.99 141.641 128.954 141.657C128.918 141.672 128.879 141.68 128.84 141.68H127.53C127.418 141.686 127.308 141.65 127.22 141.58C127.168 141.525 127.127 141.46 127.1 141.39L126.39 139.56H122L121.29 141.39C121.262 141.463 121.218 141.528 121.16 141.58C121.119 141.616 121.072 141.643 121.02 141.66C120.969 141.677 120.914 141.684 120.86 141.68H119.52ZM122.52 137.84H125.93L124.22 133.2L122.52 137.84Z" fill="white"></path><path d="M130.92 141.68C130.826 141.675 130.737 141.636 130.671 141.569C130.604 141.503 130.565 141.414 130.56 141.32V131.55C130.559 131.5 130.568 131.45 130.587 131.404C130.606 131.357 130.634 131.315 130.67 131.28C130.702 131.247 130.741 131.221 130.784 131.203C130.827 131.186 130.874 131.178 130.92 131.18H134.92C135.604 131.17 136.283 131.292 136.92 131.54C137.47 131.768 137.94 132.154 138.27 132.65C138.607 133.211 138.773 133.857 138.75 134.51C138.776 135.161 138.609 135.804 138.27 136.36C137.94 136.851 137.47 137.231 136.92 137.45C136.283 137.698 135.604 137.82 134.92 137.81H132.69V141.32C132.689 141.413 132.654 141.502 132.59 141.57C132.557 141.605 132.516 141.633 132.472 141.652C132.427 141.671 132.379 141.681 132.33 141.68H130.92ZM132.68 136.14H134.87C135.348 136.167 135.82 136.021 136.2 135.73C136.362 135.573 136.489 135.383 136.57 135.172C136.651 134.961 136.685 134.735 136.67 134.51C136.68 134.289 136.646 134.069 136.571 133.861C136.495 133.654 136.379 133.463 136.23 133.3C136.048 133.133 135.833 133.006 135.598 132.927C135.364 132.848 135.116 132.818 134.87 132.84H132.68V136.14Z" fill="white"></path><path d="M187.429 120.06C187.236 120.06 187.071 119.992 186.936 119.857C186.801 119.722 186.733 119.548 186.733 119.335V116H172.871C172.658 116 172.484 115.932 172.349 115.797C172.214 115.642 172.146 115.468 172.146 115.275V96.425C172.146 96.2123 172.214 96.0383 172.349 95.903C172.484 95.7677 172.658 95.7 172.871 95.7H176.032C176.245 95.7 176.419 95.7677 176.554 95.903C176.689 96.0383 176.757 96.2123 176.757 96.425V111.882H184.616V96.425C184.616 96.2123 184.684 96.0383 184.819 95.903C184.954 95.7677 185.128 95.7 185.341 95.7H188.502C188.715 95.7 188.889 95.7677 189.024 95.903C189.159 96.0383 189.227 96.2123 189.227 96.425V111.882H190.59C190.803 111.882 190.977 111.95 191.112 112.085C191.247 112.22 191.315 112.394 191.315 112.607V119.335C191.315 119.548 191.247 119.722 191.112 119.857C190.977 119.992 190.803 120.06 190.59 120.06H187.429Z" fill="#263774"></path><path d="M193.217 116C193.043 116 192.898 115.942 192.782 115.826C192.666 115.691 192.608 115.546 192.608 115.391C192.608 115.294 192.617 115.207 192.637 115.13L199.539 96.483C199.597 96.2703 199.713 96.0867 199.887 95.932C200.061 95.7773 200.302 95.7 200.612 95.7H204.324C204.633 95.7 204.875 95.7773 205.049 95.932C205.223 96.0867 205.339 96.2703 205.397 96.483L212.299 115.13C212.318 115.207 212.328 115.294 212.328 115.391C212.328 115.546 212.27 115.691 212.154 115.826C212.038 115.942 211.893 116 211.719 116H208.703C208.413 116 208.2 115.932 208.065 115.797C207.929 115.662 207.842 115.536 207.804 115.42L206.557 112.172H198.379L197.132 115.42C197.093 115.536 197.006 115.662 196.871 115.797C196.735 115.932 196.523 116 196.233 116H193.217ZM199.452 108.431H205.455L202.468 100.079L199.452 108.431Z" fill="#263774"></path><path d="M213.723 116C213.549 116 213.404 115.942 213.288 115.826C213.172 115.691 213.114 115.546 213.114 115.391C213.114 115.333 213.123 115.275 213.143 115.217C213.162 115.159 213.181 115.101 213.201 115.043L219.61 105.647L213.636 96.657C213.578 96.541 213.549 96.425 213.549 96.309C213.549 96.1543 213.607 96.019 213.723 95.903C213.839 95.7677 213.984 95.7 214.158 95.7H217.725C217.976 95.7 218.169 95.7677 218.305 95.903C218.459 96.0383 218.575 96.164 218.653 96.28L222.539 102.051L226.454 96.28C226.531 96.164 226.647 96.0383 226.802 95.903C226.956 95.7677 227.159 95.7 227.411 95.7H230.804C230.958 95.7 231.094 95.7677 231.21 95.903C231.345 96.019 231.413 96.1543 231.413 96.309C231.413 96.4443 231.374 96.5603 231.297 96.657L225.323 105.618L231.761 115.043C231.799 115.101 231.819 115.159 231.819 115.217C231.838 115.275 231.848 115.333 231.848 115.391C231.848 115.546 231.79 115.691 231.674 115.826C231.558 115.942 231.413 116 231.239 116H227.556C227.304 116 227.101 115.932 226.947 115.797C226.811 115.662 226.705 115.546 226.628 115.449L222.394 109.359L218.189 115.449C218.131 115.546 218.024 115.662 217.87 115.797C217.734 115.932 217.531 116 217.261 116H213.723Z" fill="#263774"></path><path d="M235.147 116C234.935 116 234.761 115.932 234.625 115.797C234.49 115.642 234.422 115.468 234.422 115.275V96.425C234.422 96.2123 234.49 96.0383 234.625 95.903C234.78 95.7677 234.954 95.7 235.147 95.7H238.308C238.521 95.7 238.695 95.7677 238.83 95.903C238.966 96.0383 239.033 96.2123 239.033 96.425V108.953L247.936 96.222C248.033 96.0867 248.149 95.9707 248.284 95.874C248.439 95.758 248.632 95.7 248.864 95.7H251.706C251.919 95.7 252.093 95.7677 252.228 95.903C252.364 96.0383 252.431 96.2123 252.431 96.425V115.275C252.431 115.488 252.364 115.662 252.228 115.797C252.093 115.932 251.919 116 251.706 116H248.545C248.352 116 248.178 115.932 248.023 115.797C247.888 115.662 247.82 115.488 247.82 115.275V103.124L238.917 115.478C238.859 115.594 238.763 115.71 238.627 115.826C238.492 115.942 238.289 116 238.018 116H235.147Z" fill="#263774"></path><path d="M257.435 116C257.242 116 257.068 115.932 256.913 115.797C256.778 115.662 256.71 115.488 256.71 115.275V96.425C256.71 96.2123 256.778 96.0383 256.913 95.903C257.068 95.7677 257.242 95.7 257.435 95.7H260.132C260.422 95.7 260.635 95.7773 260.77 95.932C260.925 96.0867 261.031 96.2027 261.089 96.28L266.425 106.111L271.819 96.28C271.858 96.2027 271.945 96.0867 272.08 95.932C272.235 95.7773 272.457 95.7 272.747 95.7H275.444C275.657 95.7 275.831 95.7677 275.966 95.903C276.102 96.0383 276.169 96.2123 276.169 96.425V115.275C276.169 115.488 276.102 115.662 275.966 115.797C275.831 115.932 275.657 116 275.444 116H272.486C272.293 116 272.129 115.932 271.993 115.797C271.858 115.662 271.79 115.488 271.79 115.275V103.559L268.107 110.461C268.011 110.635 267.885 110.79 267.73 110.925C267.576 111.06 267.373 111.128 267.121 111.128H265.758C265.507 111.128 265.304 111.06 265.149 110.925C264.995 110.79 264.869 110.635 264.772 110.461L261.089 103.559V115.275C261.089 115.488 261.022 115.662 260.886 115.797C260.751 115.932 260.587 116 260.393 116H257.435Z" fill="#263774"></path><path d="M285.77 116C285.596 116 285.451 115.942 285.335 115.826C285.219 115.691 285.161 115.546 285.161 115.391C285.161 115.333 285.17 115.275 285.19 115.217C285.209 115.159 285.228 115.101 285.248 115.043L291.657 105.647L285.683 96.657C285.625 96.541 285.596 96.425 285.596 96.309C285.596 96.1543 285.654 96.019 285.77 95.903C285.886 95.7677 286.031 95.7 286.205 95.7H289.772C290.023 95.7 290.216 95.7677 290.352 95.903C290.506 96.0383 290.622 96.164 290.7 96.28L294.586 102.051L298.501 96.28C298.578 96.164 298.694 96.0383 298.849 95.903C299.003 95.7677 299.206 95.7 299.458 95.7H302.851C303.005 95.7 303.141 95.7677 303.257 95.903C303.392 96.019 303.46 96.1543 303.46 96.309C303.46 96.4443 303.421 96.5603 303.344 96.657L297.37 105.618L303.808 115.043C303.846 115.101 303.866 115.159 303.866 115.217C303.885 115.275 303.895 115.333 303.895 115.391C303.895 115.546 303.837 115.691 303.721 115.826C303.605 115.942 303.46 116 303.286 116H299.603C299.351 116 299.148 115.932 298.994 115.797C298.858 115.662 298.752 115.546 298.675 115.449L294.441 109.359L290.236 115.449C290.178 115.546 290.071 115.662 289.917 115.797C289.781 115.932 289.578 116 289.308 116H285.77Z" fill="#263774"></path><path d="M308.122 107.155C307.929 107.155 307.765 107.087 307.629 106.952C307.494 106.817 307.426 106.652 307.426 106.459V105.241C307.426 105.048 307.494 104.883 307.629 104.748C307.765 104.613 307.929 104.545 308.122 104.545H320.882C321.076 104.545 321.24 104.613 321.375 104.748C321.511 104.883 321.578 105.048 321.578 105.241V106.459C321.578 106.652 321.511 106.817 321.375 106.952C321.24 107.087 321.076 107.155 320.882 107.155H308.122ZM314.531 116.29C312.772 116.29 311.254 116 309.978 115.42C308.702 114.84 307.707 113.97 306.991 112.81C306.276 111.631 305.889 110.152 305.831 108.373C305.812 107.542 305.802 106.72 305.802 105.908C305.802 105.077 305.812 104.236 305.831 103.385C305.889 101.645 306.276 100.185 306.991 99.006C307.726 97.8073 308.731 96.9083 310.007 96.309C311.303 95.7097 312.811 95.41 314.531 95.41C316.233 95.41 317.721 95.7097 318.997 96.309C320.293 96.9083 321.308 97.8073 322.042 99.006C322.777 100.185 323.164 101.645 323.202 103.385C323.241 104.236 323.26 105.077 323.26 105.908C323.26 106.72 323.241 107.542 323.202 108.373C323.144 110.152 322.758 111.631 322.042 112.81C321.327 113.97 320.331 114.84 319.055 115.42C317.779 116 316.271 116.29 314.531 116.29ZM314.531 112.549C315.653 112.549 316.571 112.211 317.286 111.534C318.021 110.838 318.408 109.736 318.446 108.228C318.485 107.377 318.504 106.585 318.504 105.85C318.504 105.096 318.485 104.303 318.446 103.472C318.427 102.467 318.243 101.645 317.895 101.007C317.547 100.369 317.083 99.905 316.503 99.615C315.943 99.3057 315.285 99.151 314.531 99.151C313.777 99.151 313.11 99.3057 312.53 99.615C311.95 99.905 311.486 100.369 311.138 101.007C310.81 101.645 310.626 102.467 310.587 103.472C310.568 104.303 310.558 105.096 310.558 105.85C310.558 106.585 310.568 107.377 310.587 108.228C310.645 109.736 311.032 110.838 311.747 111.534C312.463 112.211 313.391 112.549 314.531 112.549Z" fill="#263774"></path><path d="M327.585 116C327.372 116 327.198 115.932 327.063 115.797C326.928 115.662 326.86 115.488 326.86 115.275V96.425C326.86 96.2123 326.928 96.0383 327.063 95.903C327.198 95.7677 327.372 95.7 327.585 95.7H339.736C339.949 95.7 340.123 95.7677 340.258 95.903C340.393 96.0383 340.461 96.2123 340.461 96.425V98.89C340.461 99.0833 340.393 99.2477 340.258 99.383C340.123 99.5183 339.949 99.586 339.736 99.586H331.471V115.275C331.471 115.488 331.403 115.662 331.268 115.797C331.133 115.932 330.959 116 330.746 116H327.585Z" fill="#263774"></path><path d="M342.193 116C342 116 341.835 115.942 341.7 115.826C341.584 115.691 341.526 115.526 341.526 115.333C341.526 115.198 341.555 115.091 341.613 115.014L347.558 105.473L342.135 96.657C342.058 96.541 342.019 96.425 342.019 96.309C342.019 96.1543 342.067 96.019 342.164 95.903C342.28 95.7677 342.435 95.7 342.628 95.7H346.108C346.398 95.7 346.62 95.758 346.775 95.874C346.949 95.9707 347.085 96.0963 347.181 96.251L351.676 103.704H353.735V96.425C353.735 96.2123 353.803 96.0383 353.938 95.903C354.073 95.7677 354.238 95.7 354.431 95.7H357.476C357.669 95.7 357.834 95.7677 357.969 95.903C358.104 96.0383 358.172 96.2123 358.172 96.425V103.704H360.173L364.697 96.251C364.794 96.0963 364.929 95.9707 365.103 95.874C365.277 95.758 365.499 95.7 365.77 95.7H369.279C369.472 95.7 369.617 95.7677 369.714 95.903C369.83 96.019 369.888 96.1543 369.888 96.309C369.888 96.425 369.849 96.541 369.772 96.657L364.32 105.473L370.294 115.014C370.352 115.091 370.381 115.198 370.381 115.333C370.381 115.526 370.313 115.691 370.178 115.826C370.062 115.942 369.907 116 369.714 116H366.089C365.799 116 365.586 115.942 365.451 115.826C365.316 115.691 365.219 115.575 365.161 115.478L360.347 107.793H358.172V115.304C358.172 115.497 358.104 115.662 357.969 115.797C357.834 115.932 357.669 116 357.476 116H354.431C354.238 116 354.073 115.932 353.938 115.797C353.803 115.662 353.735 115.488 353.735 115.275V107.793H351.502L346.746 115.478C346.669 115.575 346.562 115.691 346.427 115.826C346.292 115.942 346.089 116 345.818 116H342.193Z" fill="#263774"></path><path d="M374.03 116C373.818 116 373.644 115.932 373.508 115.797C373.373 115.642 373.305 115.468 373.305 115.275V96.425C373.305 96.2123 373.373 96.0383 373.508 95.903C373.663 95.7677 373.837 95.7 374.03 95.7H377.191C377.404 95.7 377.578 95.7677 377.713 95.903C377.849 96.0383 377.916 96.2123 377.916 96.425V108.953L386.819 96.222C386.916 96.0867 387.032 95.9707 387.167 95.874C387.322 95.758 387.515 95.7 387.747 95.7H390.589C390.802 95.7 390.976 95.7677 391.111 95.903C391.247 96.0383 391.314 96.2123 391.314 96.425V115.275C391.314 115.488 391.247 115.662 391.111 115.797C390.976 115.932 390.802 116 390.589 116H387.428C387.235 116 387.061 115.932 386.906 115.797C386.771 115.662 386.703 115.488 386.703 115.275V103.124L377.8 115.478C377.742 115.594 377.646 115.71 377.51 115.826C377.375 115.942 377.172 116 376.901 116H374.03Z" fill="#263774"></path><path d="M409.107 116C408.895 116 408.721 115.932 408.585 115.797C408.45 115.662 408.382 115.488 408.382 115.275V99.818H402.553V102.979C402.553 105.318 402.437 107.31 402.205 108.953C401.973 110.577 401.577 111.901 401.016 112.926C400.456 113.951 399.682 114.714 398.696 115.217C397.73 115.7 396.492 115.961 394.984 116C394.791 116 394.617 115.932 394.462 115.797C394.327 115.642 394.259 115.459 394.259 115.246V112.665C394.259 112.259 394.482 112.017 394.926 111.94C395.487 111.843 395.961 111.573 396.347 111.128C396.753 110.683 397.082 110.065 397.333 109.272C397.604 108.46 397.797 107.484 397.913 106.343C398.029 105.183 398.087 103.868 398.087 102.399V96.425C398.087 96.2123 398.155 96.0383 398.29 95.903C398.426 95.7677 398.59 95.7 398.783 95.7H412.268C412.481 95.7 412.655 95.7677 412.79 95.903C412.926 96.0383 412.993 96.2123 412.993 96.425V115.275C412.993 115.488 412.926 115.662 412.79 115.797C412.655 115.932 412.481 116 412.268 116H409.107Z" fill="#263774"></path><path d="M416.765 118.175C416.61 118.175 416.475 118.107 416.359 117.972C416.262 117.856 416.223 117.711 416.243 117.537L417.055 112.259C417.093 112.008 417.19 111.785 417.345 111.592C417.499 111.399 417.731 111.302 418.041 111.302H421.057C421.211 111.302 421.337 111.36 421.434 111.476C421.55 111.573 421.608 111.698 421.608 111.853C421.608 111.969 421.588 112.085 421.55 112.201L419.52 117.392C419.442 117.585 419.326 117.759 419.172 117.914C419.036 118.088 418.814 118.175 418.505 118.175H416.765Z" fill="#263774"></path><path d="M432.285 116C432.072 116 431.898 115.932 431.763 115.797C431.628 115.642 431.56 115.468 431.56 115.275V96.425C431.56 96.2123 431.628 96.0383 431.763 95.903C431.918 95.7677 432.092 95.7 432.285 95.7H435.446C435.659 95.7 435.833 95.7677 435.968 95.903C436.103 96.0383 436.171 96.2123 436.171 96.425V108.953L445.074 96.222C445.171 96.0867 445.287 95.9707 445.422 95.874C445.577 95.758 445.77 95.7 446.002 95.7H448.844C449.057 95.7 449.231 95.7677 449.366 95.903C449.501 96.0383 449.569 96.2123 449.569 96.425V115.275C449.569 115.488 449.501 115.662 449.366 115.797C449.231 115.932 449.057 116 448.844 116H445.683C445.49 116 445.316 115.932 445.161 115.797C445.026 115.662 444.958 115.488 444.958 115.275V103.124L436.055 115.478C435.997 115.594 435.9 115.71 435.765 115.826C435.63 115.942 435.427 116 435.156 116H432.285Z" fill="#263774"></path><path d="M454.573 116C454.36 116 454.186 115.932 454.051 115.797C453.916 115.662 453.848 115.488 453.848 115.275V96.425C453.848 96.2123 453.916 96.0383 454.051 95.903C454.186 95.7677 454.36 95.7 454.573 95.7H457.734C457.947 95.7 458.121 95.7677 458.256 95.903C458.391 96.0383 458.459 96.2123 458.459 96.425V103.675H466.318V96.425C466.318 96.2123 466.386 96.0383 466.521 95.903C466.656 95.7677 466.83 95.7 467.043 95.7H470.204C470.417 95.7 470.591 95.7677 470.726 95.903C470.861 96.0383 470.929 96.2123 470.929 96.425V115.275C470.929 115.488 470.861 115.662 470.726 115.797C470.591 115.932 470.417 116 470.204 116H467.043C466.83 116 466.656 115.932 466.521 115.797C466.386 115.662 466.318 115.488 466.318 115.275V107.793H458.459V115.275C458.459 115.488 458.391 115.662 458.256 115.797C458.121 115.932 457.947 116 457.734 116H454.573Z" fill="#263774"></path><path d="M475.955 116C475.742 116 475.568 115.932 475.433 115.797C475.298 115.662 475.23 115.488 475.23 115.275V96.425C475.23 96.2123 475.298 96.0383 475.433 95.903C475.568 95.7677 475.742 95.7 475.955 95.7H479.116C479.329 95.7 479.503 95.7677 479.638 95.903C479.773 96.0383 479.841 96.2123 479.841 96.425V103.675H487.7V96.425C487.7 96.2123 487.768 96.0383 487.903 95.903C488.038 95.7677 488.212 95.7 488.425 95.7H491.586C491.799 95.7 491.973 95.7677 492.108 95.903C492.243 96.0383 492.311 96.2123 492.311 96.425V115.275C492.311 115.488 492.243 115.662 492.108 115.797C491.973 115.932 491.799 116 491.586 116H488.425C488.212 116 488.038 115.932 487.903 115.797C487.768 115.662 487.7 115.488 487.7 115.275V107.793H479.841V115.275C479.841 115.488 479.773 115.662 479.638 115.797C479.503 115.932 479.329 116 479.116 116H475.955Z" fill="#263774"></path><path d="M504.674 116.29C502.914 116.29 501.397 116 500.121 115.42C498.845 114.84 497.849 113.97 497.134 112.81C496.418 111.631 496.032 110.152 495.974 108.373C495.954 107.542 495.945 106.72 495.945 105.908C495.945 105.077 495.954 104.236 495.974 103.385C496.032 101.645 496.418 100.185 497.134 99.006C497.868 97.8073 498.874 96.9083 500.15 96.309C501.445 95.7097 502.953 95.41 504.674 95.41C506.375 95.41 507.864 95.7097 509.14 96.309C510.435 96.9083 511.45 97.8073 512.185 99.006C512.919 100.185 513.306 101.645 513.345 103.385C513.383 104.236 513.403 105.077 513.403 105.908C513.403 106.72 513.383 107.542 513.345 108.373C513.287 110.152 512.9 111.631 512.185 112.81C511.469 113.97 510.474 114.84 509.198 115.42C507.922 116 506.414 116.29 504.674 116.29ZM504.674 112.549C505.795 112.549 506.713 112.211 507.429 111.534C508.163 110.838 508.55 109.736 508.589 108.228C508.627 107.377 508.647 106.585 508.647 105.85C508.647 105.096 508.627 104.303 508.589 103.472C508.569 102.467 508.386 101.645 508.038 101.007C507.69 100.369 507.226 99.905 506.646 99.615C506.085 99.3057 505.428 99.151 504.674 99.151C503.92 99.151 503.253 99.3057 502.673 99.615C502.093 99.905 501.629 100.369 501.281 101.007C500.952 101.645 500.768 102.467 500.73 103.472C500.71 104.303 500.701 105.096 500.701 105.85C500.701 106.585 500.71 107.377 500.73 108.228C500.788 109.736 501.174 110.838 501.89 111.534C502.605 112.211 503.533 112.549 504.674 112.549Z" fill="#263774"></path><path d="M517.727 116C517.515 116 517.341 115.932 517.205 115.797C517.07 115.662 517.002 115.488 517.002 115.275V96.425C517.002 96.2123 517.07 96.0383 517.205 95.903C517.341 95.7677 517.515 95.7 517.727 95.7H526.34C527.945 95.7 529.26 95.932 530.284 96.396C531.309 96.86 532.063 97.5173 532.546 98.368C533.049 99.2187 533.3 100.214 533.3 101.355C533.3 102.07 533.165 102.699 532.894 103.24C532.643 103.781 532.324 104.226 531.937 104.574C531.57 104.922 531.212 105.183 530.864 105.357C531.618 105.705 532.276 106.285 532.836 107.097C533.416 107.89 533.706 108.837 533.706 109.939C533.706 111.157 533.436 112.22 532.894 113.129C532.353 114.038 531.551 114.743 530.487 115.246C529.424 115.749 528.129 116 526.601 116H517.727ZM521.613 112.607H526.05C526.998 112.607 527.713 112.346 528.196 111.824C528.68 111.283 528.921 110.645 528.921 109.91C528.921 109.156 528.67 108.528 528.167 108.025C527.684 107.503 526.978 107.242 526.05 107.242H521.613V112.607ZM521.613 103.907H525.789C526.698 103.907 527.375 103.685 527.819 103.24C528.283 102.776 528.515 102.186 528.515 101.471C528.515 100.756 528.283 100.185 527.819 99.76C527.375 99.3153 526.698 99.093 525.789 99.093H521.613V103.907Z" fill="#263774"></path><path d="M535.978 116C535.804 116 535.659 115.942 535.543 115.826C535.427 115.691 535.368 115.546 535.368 115.391C535.368 115.294 535.378 115.207 535.397 115.13L542.299 96.483C542.357 96.2703 542.473 96.0867 542.647 95.932C542.821 95.7773 543.063 95.7 543.372 95.7H547.085C547.394 95.7 547.636 95.7773 547.81 95.932C547.984 96.0867 548.1 96.2703 548.158 96.483L555.06 115.13C555.079 115.207 555.089 115.294 555.089 115.391C555.089 115.546 555.031 115.691 554.915 115.826C554.799 115.942 554.653 116 554.479 116H551.464C551.174 116 550.961 115.932 550.826 115.797C550.69 115.662 550.603 115.536 550.565 115.42L549.318 112.172H541.139L539.893 115.42C539.854 115.536 539.767 115.662 539.632 115.797C539.496 115.932 539.283 116 538.993 116H535.978ZM542.212 108.431H548.216L545.229 100.079L542.212 108.431Z" fill="#263774"></path><path d="M572.868 120.06C572.675 120.06 572.511 119.992 572.375 119.857C572.24 119.722 572.172 119.548 572.172 119.335V116H558.31C558.098 116 557.924 115.932 557.788 115.797C557.653 115.642 557.585 115.468 557.585 115.275V96.425C557.585 96.2123 557.653 96.0383 557.788 95.903C557.924 95.7677 558.098 95.7 558.31 95.7H561.471C561.684 95.7 561.858 95.7677 561.993 95.903C562.129 96.0383 562.196 96.2123 562.196 96.425V111.882H570.055V96.425C570.055 96.2123 570.123 96.0383 570.258 95.903C570.394 95.7677 570.568 95.7 570.78 95.7H573.941C574.154 95.7 574.328 95.7677 574.463 95.903C574.599 96.0383 574.666 96.2123 574.666 96.425V111.882H576.029C576.242 111.882 576.416 111.95 576.551 112.085C576.687 112.22 576.754 112.394 576.754 112.607V119.335C576.754 119.548 576.687 119.722 576.551 119.857C576.416 119.992 576.242 120.06 576.029 120.06H572.868Z" fill="#263774"></path><path d="M579.323 118.175C579.169 118.175 579.033 118.107 578.917 117.972C578.821 117.856 578.782 117.711 578.801 117.537L579.613 112.259C579.652 112.008 579.749 111.785 579.903 111.592C580.058 111.399 580.29 111.302 580.599 111.302H583.615C583.77 111.302 583.896 111.36 583.992 111.476C584.108 111.573 584.166 111.698 584.166 111.853C584.166 111.969 584.147 112.085 584.108 112.201L582.078 117.392C582.001 117.585 581.885 117.759 581.73 117.914C581.595 118.088 581.373 118.175 581.063 118.175H579.323Z" fill="#263774"></path><path d="M171.044 150C170.87 150 170.725 149.942 170.609 149.826C170.493 149.691 170.435 149.546 170.435 149.391C170.435 149.333 170.445 149.275 170.464 149.217C170.483 149.159 170.503 149.101 170.522 149.043L176.931 139.647L170.957 130.657C170.899 130.541 170.87 130.425 170.87 130.309C170.87 130.154 170.928 130.019 171.044 129.903C171.16 129.768 171.305 129.7 171.479 129.7H175.046C175.297 129.7 175.491 129.768 175.626 129.903C175.781 130.038 175.897 130.164 175.974 130.28L179.86 136.051L183.775 130.28C183.852 130.164 183.968 130.038 184.123 129.903C184.278 129.768 184.481 129.7 184.732 129.7H188.125C188.28 129.7 188.415 129.768 188.531 129.903C188.666 130.019 188.734 130.154 188.734 130.309C188.734 130.444 188.695 130.56 188.618 130.657L182.644 139.618L189.082 149.043C189.121 149.101 189.14 149.159 189.14 149.217C189.159 149.275 189.169 149.333 189.169 149.391C189.169 149.546 189.111 149.691 188.995 149.826C188.879 149.942 188.734 150 188.56 150H184.877C184.626 150 184.423 149.932 184.268 149.797C184.133 149.662 184.026 149.546 183.949 149.449L179.715 143.359L175.51 149.449C175.452 149.546 175.346 149.662 175.191 149.797C175.056 149.932 174.853 150 174.582 150H171.044Z" fill="#263774"></path><path d="M190.555 150C190.381 150 190.236 149.942 190.12 149.826C190.004 149.691 189.946 149.546 189.946 149.391C189.946 149.294 189.955 149.207 189.975 149.13L196.877 130.483C196.935 130.27 197.051 130.087 197.225 129.932C197.399 129.777 197.64 129.7 197.95 129.7H201.662C201.971 129.7 202.213 129.777 202.387 129.932C202.561 130.087 202.677 130.27 202.735 130.483L209.637 149.13C209.656 149.207 209.666 149.294 209.666 149.391C209.666 149.546 209.608 149.691 209.492 149.826C209.376 149.942 209.231 150 209.057 150H206.041C205.751 150 205.538 149.932 205.403 149.797C205.267 149.662 205.18 149.536 205.142 149.42L203.895 146.172H195.717L194.47 149.42C194.431 149.536 194.344 149.662 194.209 149.797C194.073 149.932 193.861 150 193.571 150H190.555ZM196.79 142.431H202.793L199.806 134.079L196.79 142.431Z" fill="#263774"></path><path d="M212.888 150C212.675 150 212.501 149.932 212.366 149.797C212.23 149.662 212.163 149.488 212.163 149.275V130.425C212.163 130.212 212.23 130.038 212.366 129.903C212.501 129.768 212.675 129.7 212.888 129.7H220.805C222.371 129.7 223.724 129.942 224.865 130.425C226.025 130.908 226.924 131.643 227.562 132.629C228.219 133.596 228.548 134.804 228.548 136.254C228.548 137.723 228.219 138.941 227.562 139.908C226.924 140.855 226.025 141.561 224.865 142.025C223.724 142.489 222.371 142.721 220.805 142.721H216.919V149.275C216.919 149.488 216.851 149.662 216.716 149.797C216.58 149.932 216.406 150 216.194 150H212.888ZM216.832 139.125H220.66C221.646 139.125 222.409 138.883 222.951 138.4C223.511 137.917 223.792 137.192 223.792 136.225C223.792 135.374 223.54 134.678 223.038 134.137C222.554 133.596 221.762 133.325 220.66 133.325H216.832V139.125Z" fill="#263774"></path><path d="M232.23 150C232.018 150 231.844 149.932 231.708 149.797C231.573 149.642 231.505 149.468 231.505 149.275V130.425C231.505 130.212 231.573 130.038 231.708 129.903C231.863 129.768 232.037 129.7 232.23 129.7H235.391C235.604 129.7 235.778 129.768 235.913 129.903C236.049 130.038 236.116 130.212 236.116 130.425V142.953L245.019 130.222C245.116 130.087 245.232 129.971 245.367 129.874C245.522 129.758 245.715 129.7 245.947 129.7H248.789C249.002 129.7 249.176 129.768 249.311 129.903C249.447 130.038 249.514 130.212 249.514 130.425V149.275C249.514 149.488 249.447 149.662 249.311 149.797C249.176 149.932 249.002 150 248.789 150H245.628C245.435 150 245.261 149.932 245.106 149.797C244.971 149.662 244.903 149.488 244.903 149.275V137.124L236 149.478C235.942 149.594 235.846 149.71 235.71 149.826C235.575 149.942 235.372 150 235.101 150H232.23Z" fill="#263774"></path><path d="M267.307 150C267.095 150 266.921 149.932 266.785 149.797C266.65 149.662 266.582 149.488 266.582 149.275V133.818H260.753V136.979C260.753 139.318 260.637 141.31 260.405 142.953C260.173 144.577 259.777 145.901 259.216 146.926C258.656 147.951 257.882 148.714 256.896 149.217C255.93 149.7 254.692 149.961 253.184 150C252.991 150 252.817 149.932 252.662 149.797C252.527 149.642 252.459 149.459 252.459 149.246V146.665C252.459 146.259 252.682 146.017 253.126 145.94C253.687 145.843 254.161 145.573 254.547 145.128C254.953 144.683 255.282 144.065 255.533 143.272C255.804 142.46 255.997 141.484 256.113 140.343C256.229 139.183 256.287 137.868 256.287 136.399V130.425C256.287 130.212 256.355 130.038 256.49 129.903C256.626 129.768 256.79 129.7 256.983 129.7H270.468C270.681 129.7 270.855 129.768 270.99 129.903C271.126 130.038 271.193 130.212 271.193 130.425V149.275C271.193 149.488 271.126 149.662 270.99 149.797C270.855 149.932 270.681 150 270.468 150H267.307Z" fill="#263774"></path><path d="M290.77 154.06C290.576 154.06 290.412 153.992 290.277 153.857C290.141 153.722 290.074 153.548 290.074 153.335V150H276.212C275.999 150 275.825 149.932 275.69 149.797C275.554 149.642 275.487 149.468 275.487 149.275V130.425C275.487 130.212 275.554 130.038 275.69 129.903C275.825 129.768 275.999 129.7 276.212 129.7H279.373C279.585 129.7 279.759 129.768 279.895 129.903C280.03 130.038 280.098 130.212 280.098 130.425V145.882H287.957V130.425C287.957 130.212 288.024 130.038 288.16 129.903C288.295 129.768 288.469 129.7 288.682 129.7H291.843C292.055 129.7 292.229 129.768 292.365 129.903C292.5 130.038 292.568 130.212 292.568 130.425V145.882H293.931C294.143 145.882 294.317 145.95 294.453 146.085C294.588 146.22 294.656 146.394 294.656 146.607V153.335C294.656 153.548 294.588 153.722 294.453 153.857C294.317 153.992 294.143 154.06 293.931 154.06H290.77Z" fill="#263774"></path><path d="M296.558 150C296.384 150 296.239 149.942 296.123 149.826C296.007 149.691 295.949 149.546 295.949 149.391C295.949 149.294 295.958 149.207 295.978 149.13L302.88 130.483C302.938 130.27 303.054 130.087 303.228 129.932C303.402 129.777 303.643 129.7 303.953 129.7H307.665C307.974 129.7 308.216 129.777 308.39 129.932C308.564 130.087 308.68 130.27 308.738 130.483L315.64 149.13C315.659 149.207 315.669 149.294 315.669 149.391C315.669 149.546 315.611 149.691 315.495 149.826C315.379 149.942 315.234 150 315.06 150H312.044C311.754 150 311.541 149.932 311.406 149.797C311.27 149.662 311.183 149.536 311.145 149.42L309.898 146.172H301.72L300.473 149.42C300.434 149.536 300.347 149.662 300.212 149.797C300.076 149.932 299.864 150 299.574 150H296.558ZM302.793 142.431H308.796L305.809 134.079L302.793 142.431Z" fill="#263774"></path><path d="M316.977 150C316.803 150 316.658 149.942 316.542 149.826C316.426 149.691 316.368 149.546 316.368 149.391C316.368 149.294 316.377 149.207 316.397 149.13L323.299 130.483C323.357 130.27 323.473 130.087 323.647 129.932C323.821 129.777 324.062 129.7 324.372 129.7H328.084C328.393 129.7 328.635 129.777 328.809 129.932C328.983 130.087 329.099 130.27 329.157 130.483L336.059 149.13C336.078 149.207 336.088 149.294 336.088 149.391C336.088 149.546 336.03 149.691 335.914 149.826C335.798 149.942 335.653 150 335.479 150H332.463C332.173 150 331.96 149.932 331.825 149.797C331.689 149.662 331.602 149.536 331.564 149.42L330.317 146.172H322.139L320.892 149.42C320.853 149.536 320.766 149.662 320.631 149.797C320.495 149.932 320.283 150 319.993 150H316.977ZM323.212 142.431H329.215L326.228 134.079L323.212 142.431Z" fill="#263774"></path><path d="M343.883 150C343.709 150 343.564 149.942 343.448 149.826C343.332 149.691 343.274 149.546 343.274 149.391C343.274 149.333 343.284 149.275 343.303 149.217C343.322 149.159 343.342 149.101 343.361 149.043L349.77 139.647L343.796 130.657C343.738 130.541 343.709 130.425 343.709 130.309C343.709 130.154 343.767 130.019 343.883 129.903C343.999 129.768 344.144 129.7 344.318 129.7H347.885C348.136 129.7 348.33 129.768 348.465 129.903C348.62 130.038 348.736 130.164 348.813 130.28L352.699 136.051L356.614 130.28C356.691 130.164 356.807 130.038 356.962 129.903C357.117 129.768 357.32 129.7 357.571 129.7H360.964C361.119 129.7 361.254 129.768 361.37 129.903C361.505 130.019 361.573 130.154 361.573 130.309C361.573 130.444 361.534 130.56 361.457 130.657L355.483 139.618L361.921 149.043C361.96 149.101 361.979 149.159 361.979 149.217C361.998 149.275 362.008 149.333 362.008 149.391C362.008 149.546 361.95 149.691 361.834 149.826C361.718 149.942 361.573 150 361.399 150H357.716C357.465 150 357.262 149.932 357.107 149.797C356.972 149.662 356.865 149.546 356.788 149.449L352.554 143.359L348.349 149.449C348.291 149.546 348.185 149.662 348.03 149.797C347.895 149.932 347.692 150 347.421 150H343.883Z" fill="#263774"></path><path d="M372.645 150.29C370.885 150.29 369.368 150 368.092 149.42C366.816 148.84 365.82 147.97 365.105 146.81C364.389 145.631 364.003 144.152 363.945 142.373C363.925 141.542 363.916 140.72 363.916 139.908C363.916 139.077 363.925 138.236 363.945 137.385C364.003 135.645 364.389 134.185 365.105 133.006C365.839 131.807 366.845 130.908 368.121 130.309C369.416 129.71 370.924 129.41 372.645 129.41C374.346 129.41 375.835 129.71 377.111 130.309C378.406 130.908 379.421 131.807 380.156 133.006C380.89 134.185 381.277 135.645 381.316 137.385C381.354 138.236 381.374 139.077 381.374 139.908C381.374 140.72 381.354 141.542 381.316 142.373C381.258 144.152 380.871 145.631 380.156 146.81C379.44 147.97 378.445 148.84 377.169 149.42C375.893 150 374.385 150.29 372.645 150.29ZM372.645 146.549C373.766 146.549 374.684 146.211 375.4 145.534C376.134 144.838 376.521 143.736 376.56 142.228C376.598 141.377 376.618 140.585 376.618 139.85C376.618 139.096 376.598 138.303 376.56 137.472C376.54 136.467 376.357 135.645 376.009 135.007C375.661 134.369 375.197 133.905 374.617 133.615C374.056 133.306 373.399 133.151 372.645 133.151C371.891 133.151 371.224 133.306 370.644 133.615C370.064 133.905 369.6 134.369 369.252 135.007C368.923 135.645 368.739 136.467 368.701 137.472C368.681 138.303 368.672 139.096 368.672 139.85C368.672 140.585 368.681 141.377 368.701 142.228C368.759 143.736 369.145 144.838 369.861 145.534C370.576 146.211 371.504 146.549 372.645 146.549Z" fill="#263774"></path><path d="M398.487 150C398.274 150 398.1 149.932 397.965 149.797C397.83 149.662 397.762 149.488 397.762 149.275V133.818H391.933V136.979C391.933 139.318 391.817 141.31 391.585 142.953C391.353 144.577 390.957 145.901 390.396 146.926C389.835 147.951 389.062 148.714 388.076 149.217C387.109 149.7 385.872 149.961 384.364 150C384.171 150 383.997 149.932 383.842 149.797C383.707 149.642 383.639 149.459 383.639 149.246V146.665C383.639 146.259 383.861 146.017 384.306 145.94C384.867 145.843 385.34 145.573 385.727 145.128C386.133 144.683 386.462 144.065 386.713 143.272C386.984 142.46 387.177 141.484 387.293 140.343C387.409 139.183 387.467 137.868 387.467 136.399V130.425C387.467 130.212 387.535 130.038 387.67 129.903C387.805 129.768 387.97 129.7 388.163 129.7H401.648C401.861 129.7 402.035 129.768 402.17 129.903C402.305 130.038 402.373 130.212 402.373 130.425V149.275C402.373 149.488 402.305 149.662 402.17 149.797C402.035 149.932 401.861 150 401.648 150H398.487Z" fill="#263774"></path><path d="M407.392 150C407.179 150 407.005 149.932 406.87 149.797C406.734 149.662 406.667 149.488 406.667 149.275V130.425C406.667 130.212 406.734 130.038 406.87 129.903C407.005 129.768 407.179 129.7 407.392 129.7H420.964C421.176 129.7 421.35 129.768 421.486 129.903C421.621 130.038 421.689 130.212 421.689 130.425V132.89C421.689 133.083 421.621 133.248 421.486 133.383C421.35 133.518 421.176 133.586 420.964 133.586H411.278V137.646H415.773C418.015 137.646 419.775 138.197 421.051 139.299C422.346 140.401 422.993 141.89 422.993 143.765C422.993 144.596 422.829 145.389 422.501 146.143C422.191 146.897 421.737 147.564 421.138 148.144C420.538 148.724 419.784 149.178 418.876 149.507C417.986 149.836 416.952 150 415.773 150H407.392ZM411.278 146.607H415.338C415.956 146.607 416.478 146.472 416.904 146.201C417.348 145.93 417.677 145.573 417.89 145.128C418.122 144.683 418.238 144.21 418.238 143.707C418.238 142.934 417.986 142.286 417.484 141.764C417 141.242 416.285 140.981 415.338 140.981H411.278V146.607Z" fill="#263774"></path><path d="M433.675 150.29C431.915 150.29 430.398 150 429.122 149.42C427.846 148.84 426.85 147.97 426.135 146.81C425.419 145.631 425.033 144.152 424.975 142.373C424.955 141.542 424.946 140.72 424.946 139.908C424.946 139.077 424.955 138.236 424.975 137.385C425.033 135.645 425.419 134.185 426.135 133.006C426.869 131.807 427.875 130.908 429.151 130.309C430.446 129.71 431.954 129.41 433.675 129.41C435.376 129.41 436.865 129.71 438.141 130.309C439.436 130.908 440.451 131.807 441.186 133.006C441.92 134.185 442.307 135.645 442.346 137.385C442.384 138.236 442.404 139.077 442.404 139.908C442.404 140.72 442.384 141.542 442.346 142.373C442.288 144.152 441.901 145.631 441.186 146.81C440.47 147.97 439.475 148.84 438.199 149.42C436.923 150 435.415 150.29 433.675 150.29ZM433.675 146.549C434.796 146.549 435.714 146.211 436.43 145.534C437.164 144.838 437.551 143.736 437.59 142.228C437.628 141.377 437.648 140.585 437.648 139.85C437.648 139.096 437.628 138.303 437.59 137.472C437.57 136.467 437.387 135.645 437.039 135.007C436.691 134.369 436.227 133.905 435.647 133.615C435.086 133.306 434.429 133.151 433.675 133.151C432.921 133.151 432.254 133.306 431.674 133.615C431.094 133.905 430.63 134.369 430.282 135.007C429.953 135.645 429.769 136.467 429.731 137.472C429.711 138.303 429.702 139.096 429.702 139.85C429.702 140.585 429.711 141.377 429.731 142.228C429.789 143.736 430.175 144.838 430.891 145.534C431.606 146.211 432.534 146.549 433.675 146.549Z" fill="#263774"></path><path d="M454.065 150.29C452.306 150.29 450.788 150 449.512 149.42C448.236 148.84 447.241 147.97 446.525 146.81C445.81 145.631 445.423 144.152 445.365 142.373C445.346 141.542 445.336 140.72 445.336 139.908C445.336 139.077 445.346 138.236 445.365 137.385C445.423 135.645 445.81 134.185 446.525 133.006C447.26 131.807 448.265 130.908 449.541 130.309C450.837 129.71 452.345 129.41 454.065 129.41C455.767 129.41 457.255 129.71 458.531 130.309C459.827 130.908 460.842 131.807 461.576 133.006C462.311 134.185 462.698 135.645 462.736 137.385C462.775 138.236 462.794 139.077 462.794 139.908C462.794 140.72 462.775 141.542 462.736 142.373C462.678 144.152 462.292 145.631 461.576 146.81C460.861 147.97 459.865 148.84 458.589 149.42C457.313 150 455.805 150.29 454.065 150.29ZM454.065 146.549C455.187 146.549 456.105 146.211 456.82 145.534C457.555 144.838 457.942 143.736 457.98 142.228C458.019 141.377 458.038 140.585 458.038 139.85C458.038 139.096 458.019 138.303 457.98 137.472C457.961 136.467 457.777 135.645 457.429 135.007C457.081 134.369 456.617 133.905 456.037 133.615C455.477 133.306 454.819 133.151 454.065 133.151C453.311 133.151 452.644 133.306 452.064 133.615C451.484 133.905 451.02 134.369 450.672 135.007C450.344 135.645 450.16 136.467 450.121 137.472C450.102 138.303 450.092 139.096 450.092 139.85C450.092 140.585 450.102 141.377 450.121 142.228C450.179 143.736 450.566 144.838 451.281 145.534C451.997 146.211 452.925 146.549 454.065 146.549Z" fill="#263774"></path><path d="M467.119 150C466.906 150 466.732 149.932 466.597 149.797C466.462 149.662 466.394 149.488 466.394 149.275V130.425C466.394 130.212 466.462 130.038 466.597 129.903C466.732 129.768 466.906 129.7 467.119 129.7H470.28C470.493 129.7 470.667 129.768 470.802 129.903C470.937 130.038 471.005 130.212 471.005 130.425V137.675H478.864V130.425C478.864 130.212 478.932 130.038 479.067 129.903C479.202 129.768 479.376 129.7 479.589 129.7H482.75C482.963 129.7 483.137 129.768 483.272 129.903C483.407 130.038 483.475 130.212 483.475 130.425V149.275C483.475 149.488 483.407 149.662 483.272 149.797C483.137 149.932 482.963 150 482.75 150H479.589C479.376 150 479.202 149.932 479.067 149.797C478.932 149.662 478.864 149.488 478.864 149.275V141.793H471.005V149.275C471.005 149.488 470.937 149.662 470.802 149.797C470.667 149.932 470.493 150 470.28 150H467.119Z" fill="#263774"></path><path d="M488.501 150C488.288 150 488.114 149.932 487.979 149.797C487.844 149.662 487.776 149.488 487.776 149.275V130.425C487.776 130.212 487.844 130.038 487.979 129.903C488.114 129.768 488.288 129.7 488.501 129.7H491.662C491.875 129.7 492.049 129.768 492.184 129.903C492.319 130.038 492.387 130.212 492.387 130.425V136.863H495.374C497.752 136.863 499.598 137.404 500.913 138.487C502.228 139.55 502.885 141.165 502.885 143.33C502.885 144.606 502.595 145.756 502.015 146.781C501.454 147.786 500.613 148.579 499.492 149.159C498.39 149.72 497.017 150 495.374 150H488.501ZM492.387 146.375H495.229C496.157 146.375 496.872 146.095 497.375 145.534C497.878 144.954 498.129 144.219 498.129 143.33C498.129 142.363 497.878 141.648 497.375 141.184C496.872 140.701 496.157 140.459 495.229 140.459H492.387V146.375ZM505.959 150C505.746 150 505.572 149.932 505.437 149.797C505.302 149.662 505.234 149.488 505.234 149.275V130.425C505.234 130.212 505.302 130.038 505.437 129.903C505.572 129.768 505.746 129.7 505.959 129.7H509.236C509.449 129.7 509.623 129.768 509.758 129.903C509.893 130.038 509.961 130.212 509.961 130.425V149.275C509.961 149.488 509.893 149.662 509.758 149.797C509.623 149.932 509.449 150 509.236 150H505.959Z" fill="#263774"></path><path d="M532.517 150C532.304 150 532.13 149.932 531.995 149.797C531.859 149.662 531.792 149.488 531.792 149.275V142.837H527.732C526.34 142.837 525.112 142.576 524.049 142.054C523.005 141.532 522.193 140.788 521.613 139.821C521.033 138.835 520.743 137.675 520.743 136.341C520.743 135.104 521.023 133.982 521.584 132.977C522.164 131.972 523.005 131.179 524.107 130.599C525.228 130 526.61 129.7 528.254 129.7H535.678C535.89 129.7 536.064 129.768 536.2 129.903C536.335 130.038 536.403 130.212 536.403 130.425V149.275C536.403 149.488 536.335 149.662 536.2 149.797C536.064 149.932 535.89 150 535.678 150H532.517ZM520.917 150C520.743 150 520.598 149.942 520.482 149.826C520.366 149.691 520.308 149.546 520.308 149.391C520.308 149.294 520.337 149.188 520.395 149.072L525.006 141.416L529.327 142.141L525.296 149.217C525.199 149.41 525.064 149.594 524.89 149.768C524.716 149.923 524.464 150 524.136 150H520.917ZM528.399 139.183H531.792V133.325H528.399C527.471 133.325 526.755 133.605 526.253 134.166C525.75 134.727 525.499 135.452 525.499 136.341C525.499 137.25 525.74 137.955 526.224 138.458C526.707 138.941 527.432 139.183 528.399 139.183Z" fill="#263774"></path><path d="M539.518 150C539.344 150 539.199 149.942 539.083 149.826C538.967 149.691 538.909 149.546 538.909 149.391C538.909 149.294 538.918 149.207 538.938 149.13L545.84 130.483C545.898 130.27 546.014 130.087 546.188 129.932C546.362 129.777 546.603 129.7 546.913 129.7H550.625C550.934 129.7 551.176 129.777 551.35 129.932C551.524 130.087 551.64 130.27 551.698 130.483L558.6 149.13C558.619 149.207 558.629 149.294 558.629 149.391C558.629 149.546 558.571 149.691 558.455 149.826C558.339 149.942 558.194 150 558.02 150H555.004C554.714 150 554.501 149.932 554.366 149.797C554.23 149.662 554.143 149.536 554.105 149.42L552.858 146.172H544.68L543.433 149.42C543.394 149.536 543.307 149.662 543.172 149.797C543.036 149.932 542.824 150 542.534 150H539.518ZM545.753 142.431H551.756L548.769 134.079L545.753 142.431Z" fill="#263774"></path><path d="M561.85 150C561.657 150 561.483 149.932 561.328 149.797C561.193 149.662 561.125 149.488 561.125 149.275V130.425C561.125 130.212 561.193 130.038 561.328 129.903C561.483 129.768 561.657 129.7 561.85 129.7H564.547C564.837 129.7 565.05 129.777 565.185 129.932C565.34 130.087 565.446 130.203 565.504 130.28L570.84 140.111L576.234 130.28C576.273 130.203 576.36 130.087 576.495 129.932C576.65 129.777 576.872 129.7 577.162 129.7H579.859C580.072 129.7 580.246 129.768 580.382 129.903C580.517 130.038 580.585 130.212 580.585 130.425V149.275C580.585 149.488 580.517 149.662 580.382 149.797C580.246 149.932 580.072 150 579.859 150H576.901C576.708 150 576.544 149.932 576.408 149.797C576.273 149.662 576.206 149.488 576.206 149.275V137.559L572.522 144.461C572.426 144.635 572.3 144.79 572.145 144.925C571.991 145.06 571.788 145.128 571.536 145.128H570.173C569.922 145.128 569.719 145.06 569.564 144.925C569.41 144.79 569.284 144.635 569.188 144.461L565.504 137.559V149.275C565.504 149.488 565.437 149.662 565.301 149.797C565.166 149.932 565.002 150 564.809 150H561.85Z" fill="#263774"></path></svg>